<?xml version="1.0" encoding="UTF-8"?>
<svg id="Layer_1" data-name="Layer 1" xmlns="http://www.w3.org/2000/svg" viewBox="0 0 619.72 519.94">
  <defs>
    <style>
      .cls-1 {
        fill: #565150;
      }

      .cls-1, .cls-2, .cls-3, .cls-4, .cls-5, .cls-6, .cls-7, .cls-8, .cls-9, .cls-10, .cls-11 {
        stroke-width: 0px;
      }

      .cls-2 {
        fill: #565354;
      }

      .cls-3 {
        fill: #555353;
      }

      .cls-4 {
        fill: #545151;
      }

      .cls-5 {
        fill: #595151;
      }

      .cls-6 {
        fill: red;
      }

      .cls-7 {
        fill: #565050;
      }

      .cls-8 {
        fill: #333;
      }

      .cls-9 {
        fill: #fff;
      }

      .cls-10 {
        fill: #595252;
      }

      .cls-11 {
        fill: #4d4d4d;
      }
    </style>
  </defs>
  <path class="cls-11" d="M121.42,411.99c-.51,1.26-1.83,2.8.64,3.33,1.39.3,2.88.12,4.33.12,50.23,0,100.46-.11,150.68.19,5.46.03,7-2.01,8.05-6.66,3.24-14.22,13.13-21.75,26.98-22.45,10.55-.53,24.23,9.35,26.34,21.31,1.06,5.99,3.48,7.82,9.62,7.78,47.95-.28,95.91-.13,143.86-.11,8.55,0,8.21.01,8.1-8.48-.24-17.73-.08-35.46-.08-53.2,0-18.78.02-37.55.03-56.33,0-1.67.02-3.34.05-5.01.09-5.38,2.06-7.86,8.11-7.38,8.42.67,16.94.02,25.41.22,3.36.08,5.98-.53,7.42-3.86.24,9.15.64,18.3.68,27.46.16,37.93.2,75.87.29,113.8-1.41,3.57-4.73,5.05-7.57,7.05-10.8,7.6-14.02,22.97-7.18,34.35,3.43,5.72,9.25,7.59,14.84,4.8,3.12-1.56,4.57-4.16,4.44-7.56-.12-3.03-1.43-5.17-4.67-3.03-3.85,2.54-7.29,2.95-10.29-.98-3.07-4.01-2.41-8.21.11-12.19,3.58-5.65,9.02-7.2,15.45-4.57,11.2,9.55,14.08,21.59,7.96,33.26-1.47,2.81-3.16,6.07-5.96,7-7.83,2.61-7.77,8.52-7.42,15,.25,4.79.18,9.6.15,14.4-.05,9.12-.14,9.21-9,9.22-39.5.08-79,.18-118.5.22-106.92.1-213.84.16-320.76.24-14.57.01-14.63.03-14.63-14.99,0-70.76.05-141.52.1-212.28,0-1.66.23-3.31.35-4.97.72-1.45,1.88-2.13,3.49-2.11,10.32.13,20.6,1.02,30.88,1.89,4.36.37,6.59,3.31,6.63,7.66.33,34.84.71,69.69-.19,104.53-.11,4.25,1.78,8.12,1.27,12.31Z"/>
  <path class="cls-8" d="M542.42,135.98c9.69,1.18,19.39.24,29.09.28,14.47.07,28.93.15,43.4.1,4.65-.02,6.18,1.13,3.46,5.76-4.43,7.52-8.73,15.15-12.62,22.96-2.48,4.99-6.05,6.7-11.38,6.73-17.35.08-34.71.5-52.06.79-2.48,1.94-5.42,1.74-8.29,1.76-7.83.06-15.65-.13-23.48.09-8.16.23-8.83,1-8.76,9.03.07,7.62.74,8.31,8.69,8.38,8.03.07,16.06-.01,24.1.04,2.68.02,5.39-.07,7.64,1.81,12.99.11,25.99.17,38.98.34,7.1.09,7.55.84,4.27,6.84-3.88,7.11-7.85,14.17-11.81,21.24-1,1.78-1.75,3.85-4.14,4.27-5.08,1.21-10.23.27-15.34.53-5.02.26-10.14-.92-14.68,2.91-1.95,1.65-5.18.88-7.85.9-7.62.05-15.24-.13-22.86.07-6.01.16-6.9,1.26-6.96,7.62-.07,6.84.99,8.38,6.82,8.47,8.85.13,17.71.41,26.56-.24,2.49-.18,4.73-.19,6.98,1.53,4.12,3.16,9.28.12,13.73,1.87.82,5.08-3.3,8.08-5.19,11.96-2.25,4.6-5.51,8.69-8.24,13.05-1.21,1.93-1.91,4.06-1.52,6.41-.48,4.47-3.39,5.63-7.32,5.66-8.06.06-16.13.15-24.19,0-4.93-.1-7.28,1.98-7.44,6.9-.09,2.71-.17,5.42-.16,8.14.24,35.89-.55,71.79.43,107.68.13,4.7-1.99,6.98-6.43,7.42-2.06.21-4.13.18-6.2.18-46.32,0-92.64,0-138.96,0q-10.93,0-14.47-10.24c-3.97-11.45-13.85-18.75-24.59-18.53-11.49.24-22.64,9.01-24.73,19.96-1.53,8.01-2.99,8.76-11.04,8.77-49.42.07-98.84.1-148.27-.08-3.03-.01-7.6,1.38-7.89-4.34.92-2.73,3.3-4.45,4.7-6.85,15.94-15.37,32.03-30.61,47.56-46.38,9.89-10.03,19.37-20.55,29.58-30.24,12.19-11.56,23.53-23.94,35.33-35.87,4.42-4.47,9.6-6.56,16.14-6.43,17.36.35,34.73.15,52.09.1,6.51-.02,6.97-.51,7-7.19.02-4.7.95-9.62-2.62-13.63.31-2.4,2.08-3.11,4.05-3.6,3.57-.25,5.55,2.38,7.76,4.51,4.87,4.69,10.28,8.47,17.04,9.62,13.58,2.31,23.21-3.93,28.23-18.54-4.22,4.89-8.82,8.43-15.77,8.38-10.93-.07-17.93-6.45-24.34-14.05-2.12-2.52-.98-5.26.76-7.45,7.8-9.81,13.49-20.96,19.87-31.66,3.03-5.08,7.44-8.23,13.08-10.06-8.07-1.1-16.04-.78-24-.62-2.48.05-4.97.44-7.19-1.1-1.56-3.08,1.42-3.91,2.8-5.3,14.34-14.43,28.87-28.68,42.89-43.42,38.88-40.87,78.91-80.58,118.55-120.7,2.13-2.15,3.81-5.94,8.1-4.08,2.35,3.12,1.77,6.78,1.78,10.27.06,27.75.03,55.5.03,83.25,0,1.88-.04,3.76.02,5.63.22,7.2,1.38,8.45,8.67,7.48,7.63-1.01,15.26-.87,22.9-.89,2.7,0,5.4.08,7.72,1.78Z"/>
  <path class="cls-6" d="M66.95,258.82c-.24-.25-.34-.54-.3-.89-2.78-7.23-1.87-8.46,5.98-7.9,2.04.14,4.06.24,5.97-.7,4.25-1.44,8.56-1.04,12.85-.35,7.6,1.22,15.24.63,22.84.45,4.57-.11,6.66-3.9,6.46-10.26-.19-5.85-2.29-8.53-7.54-8.48-18.76.18-37.34-3-56.08-2.83-5.62.05-8.78-2.35-10.99-7.2-1.1-2.42-2.46-4.82-4.38-6.77l-4.77-8.86c-2.34-7.9-1.35-9.29,6.62-9.33,2.68-.01,5.39-.22,8.05.03,16.96,1.59,33.63-3.01,50.53-2.43,3.29.11,6.62-.22,9.85.72,2.17.63,4.31.34,5.7-1.39,3.5-4.35,1.97-9.63,1.67-14.39-.24-3.81-4.35-4.16-7.38-4.14-8.64.07-17.38,1.11-25.91,0-21.13-2.75-42.38-.31-63.5-2.07-1.11-.55-2.29-1.06-3.03-2.1-4.98-6.93-9.45-14.21-13.12-21.91-2.53-5.31-.48-7.74,5.13-8.08,19.55-1.2,39.21,1,58.64-.85,12.6-1.2,24.6,2.41,36.95,1.65,3.3-.2,6.61-.07,9.75-1.37,3.61-1.5,5.18-3.62,6.08-8.09,2.69-13.35,1.29-26.48.38-39.74-.54-7.93,1.49-15.76,1.42-23.71-.02-1.67.08-4.32,2.68-4.05,2.08.22,2.77,2.45,2.83,4.37.28,9.37,2.58,18.68,1.22,28.07-1.27,8.76-1.2,17.47-.18,26.2,1.31,11.2-.42,22.51,1.43,33.73.86,5.18,3.03,7.33,8.1,7.08,4.75-.23,9.5.28,14.25.31,4.78.03,7.42-2.08,8.11-7.35,1.4-10.56,1.6-21.17,2.25-31.76.15-2.38-.19-5.18,1.37-6.95.83-.94,1.86-1.24,2.38-1.41,3.95-1.27,9.16,1.18,11.8,5,1.65,2.39.8,3.15,2.33,5.85,2.34,4.13,5.37,3.91,9.19,7.27,5.04,4.45,7.44,9.93,9.68,16.03,3.18,8.67,10.13,12.79,19.2,12.95,6.4.11,12.8.34,19.22.13,4.58-.15,5.18-2.28,4.34-6-.23-1.02-.35-2.05-.9-2.96-8.18-13.43-14.52-28-24.62-40.24-3.89-4.72-3.92-5.82,1.18-9.36,10.64-7.38,17.81-17.14,18.5-30.24.74-14.07-5.06-35.48-24.47-37.9-2.64-.33-5.24-1.23-7.51-2.8-1.04-.73-2.02-1.62-1.8-3.03.22-1.41,1.41-1.96,2.64-2.31,2.02-.57,4.1-.54,6.16-.5,20.65.43,41.34.53,61.96-.18,62.4-2.14,124.81-.33,187.21-1.04,6.59-.07,13.09-1.84,19.74-1.22,2.88.27,6.25-.08,7.23,3.46.95,3.46-1.79,5.41-4.32,6.79-2.19,1.19-3.38,2.95-4.36,5.03-.81,1.73-1.79,3.39-3.48,4.29-7.7,4.1-12.35,11.12-17.14,18-6.26,7.16-12.38,14.43-19.36,20.95-8.92,8.33-17.17,17.36-25.59,26.21-5.26,5.52-10.43,11.21-16.61,15.78-12.08,10.64-23.68,21.76-35.19,33.03-9.91,9.69-17.74,21.39-28.87,29.84-1.74,1.32-3.27,2.7-5.49,1.46-2.23-1.24-2.37-3.35-1.58-5.45,3.61-9.57-.6-16.8-7.43-22.51-7.72-6.45-16.87-7.42-26.22-3.86-3.25,1.24-6.4,2.82-9.66,4.11-3.59,1.42-6.61,3.81-7.89,7.51-3.73,10.72-6.61,21.53-.5,32.47,2.08,3.73,1.74,7.53-1.57,10.17-4.14,3.3-7.43,7.43-12.54,9.85-10.93,5.18-19.58,26.63-16.3,38.32.29,1.04,1.17,1.69,1.81,2.5,4.16,6.68,9.26,12.2,16.97,14.77,1.68.56,3.77,1.47,3.14,3.92-.53,2.04-2.45,2.72-4.3,3.09-3.68.75-7.42.47-11.12.41-6.59-.1-11.47,2.42-16.23,7.36-10.05,10.43-20.11,20.87-30.62,30.88-8.23,7.83-16.15,16.09-23.95,24.35-8.12,8.6-17.39,16.08-24.79,25.28-7.58,9.41-17.88,16.02-24.95,25.86-1.22,1.69-2.76,3.08-4.75,3.89-3.7,1.51-6.22.2-6.58-3.75-.23-2.47.14-4.99.14-7.49,0-31.48.01-62.96-.01-94.44,0-10.1-2.07-12.25-12.01-11.85-5.38.21-10.74-.43-16.08-.03-5.98.44-10.45-1.71-13.52-6.88-4.06-6.7-6.57-14.39-12.4-19.98Z"/>
  <path class="cls-4" d="M542.42,135.98c-11.08.66-22.19-.06-33.29,1.2-7.89.89-8.03.15-8.03-7.67,0-31.64.03-63.28-.08-94.92,0-2.15,1.55-5.26-2.22-6.19-4.33-4.4-9.82-3.25-15.1-3.25-65.35.03-130.69.01-196.04.02-15.1,0-30.21.45-45.28-.1-28.89-1.04-57.77.89-86.64.05-9.66-.28-19.26-1.38-28.97-.07-4.41.59-6.15,2.09-6.15,6.57-.02,30.47.1,60.94-.05,91.41-.01,2.71.21,5.44-.24,8.12-.61,3.71-2.81,6.37-6.54,6.45-11.33.25-22.68,1.24-33.98-.62-1.66-1.19-1.36-2.76-.86-4.38-.09-7.08,0-14.16-.34-21.22-.2-4.2,1.46-6.65,5.24-8.07,3.12-1.17,6.05-2.71,7.89-5.72,1.94-5.25,5.43-9.79,6.35-15.54,1.88-11.81-6.26-21.34-17.42-20.03-4.57,1.44-7.55,4.18-7.38,9.38.15,4.47,2,5.5,5.79,3.13,1.76-1.1,3.39-2.35,5.58-2.37,4.24.3,6.54,2.76,6.43,6.87-.14,5.26-3.39,8.21-8.27,9.49-10.77,1.32-16.24-1.73-19.57-10.91-3.52-9.71-.04-20.79,9.42-25.91,5.39-2.92,6.51-6.43,6.31-11.94-.39-10.84.07-21.72-.34-32.56C78.46,1.72,80.14-.02,85.65,0c62.67.27,125.34.35,188.01.41,85.84.08,171.68.1,257.51.15,11.97,0,10.52-.68,10.53,10.89.03,35.28.05,70.56,0,105.85,0,6.24,1.62,12.41.71,18.68Z"/>
  <path class="cls-6" d="M458.97,63.51c4.58-7.93,9.76-15.27,18.28-19.48,1.02-.5,2.11-1.65,2.41-2.72,1.03-3.61,2.64-6.27,6.51-7.56,1.64-.55,3.95-2.27,3.16-4.74-.69-2.15-2.99-1.72-4.84-1.85-10.13-.69-20.11,1.42-30.25,1.37-52.95-.25-105.91-.71-158.85.18-21.46.36-42.95.1-64.37,1.24-8.14.43-16.28-1.76-25,.31,2.11,3.67,5.69,4.15,8.5,4.25,7.41.25,12.54,5.47,18.37,8.61,2.46,1.32,3.87,7.6,4.93,11.83.65,2.6.99,5.25,2.21,7.7,3.34,6.75,1.15,13.48-.47,20.06-2.74,11.1-10.23,18.63-19.63,24.28-3.31,1.99-1.88,2.98-.29,5.05,5.82,7.59,12.75,14.37,15.82,23.94,1.95,6.09,7.63,10.23,9.57,16.49.12.37.54.64.72,1.01,4.27,8.47,2.64,11.54-6.64,11.41-8.72-.12-17.54,1.65-26.14-1.65-9.01-3.46-13.42-10.15-14.67-19.44-.14-1.01-.13-2.67-.66-2.89-6.94-2.87-9.44-11.2-16.78-13.63-3.79-1.25-7.18-3.29-2.33-8.26-3.39-.28-5.8.85-8.28-1.4-2.53-2.29-2.82.94-2.91,2.64-.5,8.63-.8,17.28-1.32,25.91-.26,4.34-.54,8.72-1.37,12.97-1.04,5.36-5.79,6.86-9.97,6.41-5.17-.55-10.29-.42-15.43-.56-4.99-.14-7.48-2.56-7.99-7.55-1.85-18.2-2.83-36.56-1.99-54.73.54-11.49-.56-22.77-.49-34.15,0-1.39.31-2.97-2.36-4.51.72,11.17-2.89,21.63-.92,32.12,1.72,9.13-.68,18.35,1.67,27.33-4.78,3.91-.19,11.03-5.02,14.92-4.87,3.92-10.6,3.98-16.45,4.06-6.64.09-13.17-.54-19.58-2.16-5.24-1.33-10.22.9-15.31.76-16.29-.43-32.59,1.04-48.9-.75-4.18-.46-8.44,1.97-13.16,1.19-3.18-.52-2.13,3.06-1.32,4.67,2.67,5.34,5.21,10.88,8.76,15.6,2.27,3.02,3.54,6.51,5.84,9.41-1.26.92-2.56.76-3.86.13-5.4-5.2-7.76-12.24-11.13-18.67-1.49-2.96-3.15-5.87-4.28-8.98-1.21-3.33-.47-5.75,3.8-5.65,15.63.35,31.27-.16,46.92.34,8.55.27,17.24.31,25.82-.86,10.94-.37,21.89.24,32.82-.13,6.68-.23,7.96-1.51,7.98-8.23.08-30.02.04-60.05.03-90.07,0-2.09-.07-4.18.04-6.26.32-5.79,2.03-7.91,7.88-8.26,12.96-.77,25.95-.75,38.92-.28,15.28.56,30.56.81,45.82-.09,7.26-.43,14.43.49,21.65.49,83.29-.03,166.59-.04,249.88.04,3.31,0,7.73-1.62,9.5,2.5,1.88,4.37-2.48,6.37-4.79,9.17-7.03,8.51-15.99,15.08-23.04,23.58-1.66,2-3.26,5.27-7.01,3.54Z"/>
  <path class="cls-6" d="M79.3,277.65c6.7,9.29,16.72,5.64,25.53,6.55,2.85.29,5.77-.26,8.65-.19,5.2.13,9.08,3.75,9.09,8.9.05,34.82.01,69.63-.1,104.45,0,1.87-.95,4.02,1.06,5.03,2.4,1.21,4.44-.57,5.98-2.14,2.88-2.95,5.3-6.35,8.19-9.29,12.63-12.87,25.75-25.27,37.91-38.57,8.92-9.76,18.44-18.94,27.71-28.27,9.56-9.63,19.63-19,28.64-29.06,8.01-8.93,16.36-12.39,27.57-11.15,2.78.31,5.71.33,8.52-2.96-9.82-2.83-17.02-8.22-21.34-17.02-.22-1.29.54-1.68,1.61-1.78,1.3.25,2.24,1.09,2.91,2.13,8.81,13.66,21.83,14.65,35.95,12.14,5.76-1.02,10.82-3.73,15.64-7.02,2.11-1.44,4.05-3.7,7.12-2.85,2.27.72,3.83,1.34,3.88,4.67.27,17.71.43,17.7-17.3,17.69-13.84,0-27.74.74-41.51-.26-9.65-.7-15.19,4.35-21.13,10.31-8.6,8.62-16.69,17.73-25.5,26.18-10.89,10.44-21.58,21.13-31.87,32.24-10.96,11.82-22.56,23.13-34.63,33.78-5.72,5.05-9.27,12.34-16.47,15.71-5.26,1.85-6.07-1.27-5.99-5.43.3-16.67.08-33.34.12-50.01.04-18.74,0-37.48,0-56.21,0-5.65-1.62-7.44-7.35-7.48-7.84-.05-15.64-1.05-23.49-.7-4.3.2-7.61-1.53-9.51-5.59-.32-.3-.35-.64-.1-1-.55-1-.72-1.96.23-2.83Z"/>
  <path class="cls-1" d="M542.22,193.72c-11.78,0-23.56-.18-35.34.07-4.9.1-7.06-1.2-7.05-6.63.01-14.61-.2-14.62,14.59-14.61,9.3,0,18.6.03,27.9.05-.78,7.04-.85,14.08-.1,21.12Z"/>
  <path class="cls-7" d="M555.91,250.06c-16.88-1.67-33.81-1.18-50.73-1.11-3.52.01-4.93-1.74-5.1-4.82-.2-3.74-.12-7.5-.11-11.25.01-2.52,1.35-3.82,3.83-3.93.21,0,.41-.04.62-.02,21.8,1.84,43.32-3.72,65.09-2.51-6.73,2.99-13.84,1.39-20.73,1.37-5.87-.02-7.35,2-7.24,7.61.24,12.17-.03,12.17,11.79,13.32,1.05.1,2.05.24,2.57,1.34Z"/>
  <path class="cls-10" d="M79.32,192.47c-.56-5.01-.63-10.01.07-15.01.46-3.2,2.63-3.9,5.38-3.7,8.43.62,16.83.67,25.29.17,7.13-.42,9.97,3.84,9.74,12.71-.13,5.15-3.15,7.24-10.01,7.17-8.25-.08-16.5-.15-24.75.06-2.08.05-4.14.46-5.72-1.39Z"/>
  <path class="cls-5" d="M80.4,246.29c.07-4.98.15-9.96.22-14.94.51-2.85,2.23-3.39,4.93-3.25,9.28.5,18.57.83,27.87.87,4.71.02,7.8,3.66,8.08,8.56.33,5.8-2.42,10.13-7.39,10.49-10.73.77-21.46,0-32.17-.72-.67-.04-1.06-.61-1.52-1Z"/>
  <path class="cls-6" d="M79.32,192.47c10.1,0,20.21.04,30.31.02,4.21,0,8.85.13,8.63-6-.31-8.8-2.82-12.07-9.14-11.12-7.84,1.18-15.51,1.12-23.26-.31-2.51-.46-4.95-.16-6.47,2.39-.47-3.91-3.11-4.1-6.27-4.09-15.64.04-31.28-.04-46.92-.21-2.74-.03-5.81.8-8.03-1.82,1.29-.04,2.58-.08,3.87-.13,10.28.45,20.79,1.35,30.82.68,18.96-1.26,37.79,2.68,56.7-.08,8.87-1.29,12.27,2.77,11.84,12.02-.09,1.87.17,3.78-.07,5.62-.61,4.62-3.27,7.32-7.98,6.63-10.68-1.56-21.26-.87-31.98-.08-11.92.88-23.95.24-35.93.26q-8.47.02-8.44,8.73c-2.05-2.76-5.88-5.66-4.32-8.91,1.44-3.01,5.97-1.25,9.12-1.3,10.51-.17,21.03-.13,31.54-.11,2.32,0,4.58.14,5.99-2.22Z"/>
  <path class="cls-6" d="M79.05,246.61c10.94.04,21.99-.49,32.92-.1,6.5.23,6.22-4.75,6.6-8.4.29-2.8.32-4.9-3.78-6.06-1.27-.36-2.6-.43-3.91-.3-9.37.96-20.05-.21-30.58-.21-.65,0-1.24,0-.92-.19-.33-3.57-2.63-3.78-5.46-3.72-4.96.1-9.96-.44-14.88-.03-7.12.6-11.98-1.85-14.47-8.77-.77-2.13-1.86-4.14-2.81-6.21,2.12.73,3.55,2.33,4.16,4.35,2.71,8.99,10.18,9.4,17.29,9.21,17.14-.46,34.18,1.79,51.3,1.35,4.32-.11,6.47,2.01,7.33,5.99,2.11,9.83.3,17.38-11.6,16.9-10.69-.43-21.35-1.96-32.08-1.4-.38-.22-.53-.47-.45-.75.09-.29.19-.44.3-.44.38-.51.66-.7,1.05-1.21Z"/>
  <path class="cls-6" d="M79.17,281.48c4.22,4.34,9.36,5.46,15.24,5.07,5.55-.37,11.15-.09,16.73-.07,8.12.02,8.99.86,9,8.88,0,34.82.03,69.63-.04,104.45,0,3.91,22.26-16.1,27.38-16.29-.36,2.46-25.53,30.11-27.37,31.4-1.24-3.77-1.21-11.99-1.39-17.04-.45-12.09.32-24.21.12-36.31-.36-20.84.78-41.68-.65-62.53-.68-9.83-.21-9.17-10.11-10.28-8.61-.96-17.3-.08-25.82-1.8-.88-.18-1.93.48-2.9.74-.06-2.08-.11-4.15-.17-6.23Z"/>
  <path class="cls-6" d="M79.22,138.65c-22.69,1.51-45.39-.35-68.08.15-8.58.19-9.02.73-5.78,8.64.69,1.7,2.03,3.19,1.68,5.23-3.06-4.11-8.4-9.07-6.72-13.11,1.84-4.42,8.89-1.82,13.62-1.86,19.55-.19,39.11-.22,58.66.09,4.21.07,6-1.26,6.37-5.19.21,1.24.42,2.47.62,3.7.45.88.27,1.66-.37,2.36Z"/>
  <path class="cls-6" d="M79.3,277.65c-.08.94-.16,1.89-.23,2.83-4.04-7.22-8.08-14.44-12.12-21.66,1.88-1.17,2.42.43,3.2,1.57,3.7,5.4,6.91,11.07,9.15,17.26Z"/>
  <path class="cls-6" d="M78,249.08c.07.39.11.79.15,1.19-1.36,1.27-3.11,1.36-4.66.92-6.28-1.79-8.05.88-6.84,6.74-.96-1.3-2.04-2.54-2.86-3.93-1.73-2.96-.91-4.73,2.6-4.83,3.87-.1,7.75-.07,11.62-.09Z"/>
  <path class="cls-9" d="M384.83,341.79c0-18.99.13-37.99-.1-56.98-.05-4.45.74-6.15,5.66-6.03,16.33.4,32.68-.08,49.01.39,22.23.64,37.52,12.02,44.39,33.37,6.23,19.34,6.56,39.02.06,58.41-6.61,19.71-20.39,31.4-41.01,32.72-18.13,1.16-36.37.46-54.56.74-4.08.06-3.43-2.57-3.44-5.01,0-19.2,0-38.41,0-57.61Z"/>
  <path class="cls-9" d="M328.79,201.75c10.52-.03,21.05-.09,31.57-.05,1.47,0,3.69-.73,3.78,1.89.07,2.04-1.95,2.06-3.2,2.17-6.52.56-10.26,4.74-13.33,9.94-6.44,10.88-12.18,22.21-20.21,32.07-.95,1.17-1.81,2.22-.37,3.74,5.87,6.18,11.54,12.59,20.64,13.87,9.21,1.3,13.51-1.32,18.72-11.54,3.59.83,2.87,3.03,2.01,5.64-6.66,20.05-26.16,25.82-43.78,13.02-3.84-2.79-6.47-7.03-10.95-8.99-3.05-.61-3.57-3.08-4.06-5.59-.82-4.2-2.84-7.67-5.81-10.76-3.43-3.57-6.03-7.69-8.43-12.16-2.87-5.35-4.86-11.08-8.97-16.09-6.78-8.27-7.43-19.52-9.96-29.72-1.45-5.87,1.44-10.96,4.13-15.93.69-1.28,1.4-2.57,2.4-3.62,1.42-1.49,2.96-3.45,5.22-2.41,2.5,1.15,1.43,3.64,1.03,5.55-2.69,12.7.63,23.77,8.73,33.58,2.2,2.66,3.02,5.83,3.79,9.1.96,4.08,2.1,8.15,6.83,9.53,2.08.91,3.35,2.7,4.74,4.37,2.2,3.03,3.79,6.45,6.02,9.48,1.54,2.08,2.92,2.91,4.73.32,3.94-5.63,7.63-11.36,9.89-17.98,2.54-7.44-1.59-12.21-5.99-17.02-.14-.96.04-1.8.85-2.42Z"/>
  <path class="cls-3" d="M311.55,364.23c-15.07.67-27.66-11.84-27.57-27.83.09-15.18,11.84-27.01,26.78-27.51,16.66-.55,28.42,11.47,28.77,28.72.28,13.79-13.33,28.94-27.99,26.62Z"/>
  <path class="cls-6" d="M328.79,201.75c-.11.69-.23,1.39-.34,2.08-4.44,4.68-9.56,8.64-13.99,13.34-2.32,2.12-3.25,5.95-7.24,6.03-2.01-.77-2.79-2.24-2.44-4.35,1.43-1.1,3.32-1.18,4.64-2.82,10.8-13.39,24.37-24.11,35.68-36.96,10.82-12.29,23.19-22.95,34.17-35.05,6.18-6.81,13.94-12.17,20.09-19.16,9.11-7.94,17.1-17.08,25.4-25.79,9.8-10.29,20.64-19.56,29.71-30.56,1.43-1.73,3-3.34,4.5-5.01,1.31-.04,2.48-.49,3.28-1.52,8.64-11.15,20.03-19.59,29.13-30.28.96-1.13,2.73-2.32,1.54-4.3-.86-1.44-2.39-1.48-3.86-1.49-1.65-.01-3.31-.02-4.96-.02-99.27,0-198.54.2-297.81-.17-18.68-.07-37.38-.05-56.07-.61-6.24-.19-8.89,2.47-8.8,9.31.41,30.02-1.06,60.06.68,90.07.18,3.07-.07,6.31-.87,9.26-1.91,7.06-8.62,5.63-12.94,5.36-9.71-.61-19.4-.02-29.08-.46.12-.79.24-1.57.37-2.36,10.34-.04,20.68-.07,31.02-.13,7.18-.05,8.25-1.11,8.25-8.4.02-31.9,0-63.81.03-95.71,0-7.68.94-8.65,8.6-8.66,23.9-.05,47.8-.03,71.7-.02,95.25,0,190.5.02,285.76,0,2.05,0,4.09-.44,6.14-.5,3.91-.11,7.63.18,7.71,5.55-23.1,23.53-46.34,46.92-69.25,70.63-12.06,12.48-24.42,24.67-36.35,37.3-21.02,22.24-42.89,43.65-64.41,65.41Z"/>
  <path class="cls-9" d="M305.17,218.84c.78,1.26,1.56,2.52,2.34,3.78,1.58.8,2.51,1.85,1.4,3.69-6.23.28-7.72-4.89-8.45-9.05-.96-5.47-4.09-9.1-6.8-13.5-5.21-8.42-8.64-17.87-6.76-28.28.43-2.39,1.1-4.75,1.72-7.37-6.83,2.77-12.15,14.08-10.68,21.91,1.37,7.3,4.54,14.08,5.73,21.49.51,3.21,2.7,6.12,5.77,8.5,4.64,3.6,4.53,10.33,7.84,15.11,1.46,2.11,2.08,4.87,4.02,6.89,5.02,5.22,10.19,10.35,10.33,18.45.02,1.03,1.33,2.04,2.04,3.06-1.24,1.02-2.48,2.03-3.73,3.05-9.77,7.24-20.07,12.82-32.76,12.71-12.9-.11-22.65-5.12-28.77-16.77-3.82-4.08-4.33-14.84-.6-21.53,4.59-8.21,10.1-15.56,18.42-20.58,3.45-2.08,6.34-5.17,9.92-7.29,4.25-2.51,2.42-6.49,1.04-9.45-4.27-9.17-4.6-18.4-1.76-27.93,3.4-11.4,13.74-17.73,26.54-19.22,11.44-1.33,19.95,3.4,25.26,14.09,3.41,6.87,1.6,17.58-4.05,24.01-4.01,4.56-8.62,8.48-13.93,11.34-4.86,2.62-7.79,5.47-4.03,11.08.34.51.13,1.21-.06,1.82Z"/>
  <path class="cls-6" d="M305.17,218.84q-5.71-8.8,3.09-14.16c6.39-3.89,12.79-8.01,16.3-14.84,3.79-7.4,4.29-15.24-.85-22.44-6.13-8.59-14.85-10.9-24.66-9.09-19.69,3.63-28.87,21.22-21.91,41.49,1.33,3.88,4.44,8.16,3.64,11.49-.85,3.51-6.46,4.47-9.79,6.85-8.29,5.91-16.12,12.25-20.8,21.74-3.63,7.36-4.51,14.81-1.77,22.62-.57.48-1.14.96-1.71,1.44-4.73-7.08-3.71-15.14-.85-21.8,3.08-7.16,6.33-15.33,13.55-19.53,4.75-2.76,9.01-5.92,13.19-9.38,3.62-2.99,4.98-5.81,2.42-10.67-4.06-7.69-4.76-15.76-1.73-24.5,1.9-5.47,1.86-12.1,7.47-14.97,10.93-5.58,21.89-11.42,35.04-5.85,7.97,3.37,19.74,16.42,14.19,27.6-.73,1.48-1.8,3.1.06,4.44,2.24,1.61,3.01-.57,4.41-1.75,13.16-10.99,23.67-24.63,35.67-36.78,8.53-8.63,18.48-15.61,26.47-24.75.59-.67,1.84-.76,2.78-1.12-4.86,7.33-11.86,12.6-17.71,18.93-12.05,13.01-25.62,24.44-37.26,37.87-7.1,8.18-15.51,15.2-23.13,22.93-3.91,3.97-7.72,8.13-10.91,12.68-1.69,2.42-3.22,1.9-5.19,1.56Z"/>
  <path class="cls-6" d="M310.31,79.74c22.22-1.61,29.83,14.25,30.75,29.21,1.09,17.59-15.9,29.66-26.78,29.45-18.61-.36-30.42-8.92-31.38-28.31-.94-18.77,10.17-30.28,27.42-30.36Z"/>
  <path class="cls-9" d="M169.86,109.71c-.58.05-1.07.12-1.41.17-5.87,1.18-7.07,5.12-6.86,10.6.34,8.92.15,17.86.05,26.8-.02,1.98.8,4.16-.78,5.96q-1.3,8.41-10.11,8.43-15.53.03-15.49-15.5c.02-26.9.01-53.8.02-80.7,0-8.38.09-16.77-.03-25.15-.04-2.8.59-4.21,3.73-4.15,21.26.39,42.53-.52,63.8.7,22.28,1.28,32.15,15.33,33.61,32.22,1.58,18.26-8.41,31.21-28.32,36.78-.59.17-1.19.31-3.22.84,7.83,5.08,13.91,10.74,18.4,17.93,6.81,10.91,13.64,21.82,20.55,32.67,1.9,2.97,1.81,4.4-2.18,4.33-7.23-.12-14.46-.19-21.69,0-3.56.09-5-2.18-6.64-4.67-4.9-7.44-9.92-14.8-14.89-22.19-3.74-5.75-7.31-10.36-10.19-13.8,0,0-9-10.77-14.61-11.27-1.85-.17-3.73,0-3.73,0Z"/>
  <path class="cls-6" d="M169.87,109.95c7.06-.95,12.36,2.14,16.7,7.42,4.47,5.44,8.5,11.18,11.82,17.42-3.64.96-3.46-2.74-4.51-4.28-6.2-9.08-13.08-17.17-24.01-20.55Z"/>
  <path class="cls-9" d="M158.96,151.06c-.09-12.47-.09-24.95-.3-37.42-.11-6.67,5.93-3.44,9.78-3.79-7.56,3.61-8.01,9.15-7.75,15.27.44,10.33.12,20.68-1.06,31.05-.23-1.71-.45-3.41-.68-5.12Z"/>
  <path class="cls-8" d="M425.7,382.46c-4.91,0-11.24,1.88-14.34-.51-3.38-2.6-1.02-9.33-1.06-14.23-.17-20.41.13-40.83-.23-61.23-.09-5.43,1.6-6.67,6.58-6.28,7.38.57,14.81-.03,22.23.93,10.64,1.38,17.55,7.24,20.44,17.33,4.58,15.94,4.2,32.04-.21,48.02-3.04,11.03-11.11,15.42-21.66,16.2-3.9.29-7.84.05-11.76.05,0-.09,0-.18,0-.27Z"/>
  <path class="cls-8" d="M313.68,216.36c3.07-5.13,9.21-7.25,12.13-12.58.64-1.16,1.76-.46,2.64.05,8.79,6.85,9.92,11.58,5.16,22.37-1.17,2.66-2.5,5.28-4.06,7.71-2.23,3.48-4.74,6.78-7.45,10.61-4.24-4.43-7.16-9.26-9.75-14.34-.81-4.73-.82-9.38,1.33-13.82Z"/>
  <path class="cls-8" d="M313.68,216.36c-.32,4.62,1.18,9.42-1.33,13.82-1.15-1.29-2.29-2.59-3.44-3.88-.47-1.23-.94-2.46-1.4-3.69,3.1-1.04,3.39-4.9,6.17-6.26Z"/>
  <path class="cls-6" d="M264.91,245.78c.02-12.58,7.7-20.03,17.21-26.35,2.4-1.59,3.46-.21,4.3,1.54,5.79,12.05,13.3,23,21.02,33.83.92,1.29,2.18,2.73.14,4.27-7.34,5.56-14.81,10.93-24.73,9.37-11.09-1.75-17.99-10.62-17.94-22.67Z"/>
  <path class="cls-6" d="M289.94,179.39c.1-5.07,2.2-10.44,7.8-13.37,4.59-2.41,9.77-2.39,14.05.86,5.41,4.09,6.23,10.03,4.78,16.3-2.27,9.79-9.48,15.13-17.66,19.59-1.95,1.06-2.59.09-3.16-1.37-2.64-6.75-5.66-13.39-5.81-22.01Z"/>
  <path class="cls-9" d="M286.3,272.83c-13.29,6.03-32.35.37-35.28-15.01-1.46-7.67,1.81-19.68,7.78-24.52.8-.65,1.59-1.36,2.19-2.19,1.18-1.62,2.18-4.55,4.51-2.91,2.44,1.72.58,3.97-.92,5.83-4.24,5.24-4.36,18.88-.08,24.58,4.12,5.48,7.52,12.03,16.14,11.33,1.55-.13,3.24,1.6,5.67,2.89Z"/>
  <path class="cls-2" d="M286.4,108.01c-1.73-12.17,12.49-26.49,28.07-25.83,11.83.5,22.97,13.33,22.88,27.23-.08,13.24-12.86,25.11-26.29,25.6-11.02.41-26.76-15.12-24.66-27Z"/>
  <path class="cls-6" d="M172.34,90.87c-6.8.68-9.49-1.71-10.35-2.63-2.11-2.26-1.01-4.41-1.29-17.83-.27-12.8-.11-12.86,12.81-12.78,7.84.05,15.69-.5,23.5.52,8.48,1.11,13.17,6.12,13.39,14.34.13,4.84-1.23,8.84-3.88,11.64-2.62,2.77-5.85,3.6-9.27,4.31-5.63,1.17-14.03,2.43-24.93,2.43Z"/>
  <g>
    <path class="cls-9" d="M127.74,430.72c1.37-.32,3.34-.5,5.21-.5,2.9,0,4.78.61,6.09,1.98,1.06,1.08,1.65,2.74,1.65,4.61,0,3.2-1.75,5.33-3.96,6.19v.11c1.62.65,2.59,2.38,3.09,4.9.69,3.38,1.19,5.72,1.62,6.66h-2.81c-.34-.68-.81-2.77-1.4-5.79-.62-3.35-1.75-4.61-4.21-4.72h-2.56v10.51h-2.72v-23.94ZM130.46,441.77h2.78c2.9,0,4.75-1.83,4.75-4.61,0-3.13-1.97-4.5-4.84-4.54-1.31,0-2.25.14-2.68.29v8.85Z"/>
    <path class="cls-9" d="M155.43,443.29h-8.18v8.75h9.12v2.63h-11.83v-24.26h11.36v2.63h-8.65v7.67h8.18v2.59Z"/>
    <path class="cls-9" d="M159.52,450.85c1.22.86,3,1.58,4.87,1.58,2.78,0,4.4-1.69,4.4-4.14,0-2.27-1.12-3.56-3.96-4.82-3.43-1.4-5.56-3.46-5.56-6.88,0-3.78,2.72-6.59,6.81-6.59,2.15,0,3.71.58,4.65,1.19l-.75,2.56c-.69-.43-2.09-1.15-4-1.15-2.87,0-3.96,1.98-3.96,3.64,0,2.27,1.28,3.38,4.18,4.68,3.56,1.58,5.37,3.56,5.37,7.13,0,3.74-2.4,6.98-7.37,6.98-2.03,0-4.25-.68-5.37-1.55l.69-2.63Z"/>
    <path class="cls-9" d="M186.18,443.29h-8.18v8.75h9.12v2.63h-11.83v-24.26h11.36v2.63h-8.65v7.67h8.18v2.59Z"/>
    <path class="cls-9" d="M194.04,447.03l-2.19,7.63h-2.81l7.15-24.26h3.28l7.18,24.26h-2.9l-2.25-7.63h-7.46ZM200.94,444.58l-2.06-6.98c-.47-1.58-.78-3.02-1.09-4.43h-.06c-.31,1.44-.66,2.92-1.06,4.39l-2.06,7.02h6.34Z"/>
    <path class="cls-9" d="M209.74,430.72c1.37-.32,3.34-.5,5.21-.5,2.9,0,4.78.61,6.09,1.98,1.06,1.08,1.65,2.74,1.65,4.61,0,3.2-1.75,5.33-3.96,6.19v.11c1.62.65,2.59,2.38,3.09,4.9.69,3.38,1.19,5.72,1.62,6.66h-2.81c-.34-.68-.81-2.77-1.4-5.79-.62-3.35-1.75-4.61-4.21-4.72h-2.56v10.51h-2.72v-23.94ZM212.46,441.77h2.78c2.9,0,4.75-1.83,4.75-4.61,0-3.13-1.97-4.5-4.84-4.54-1.31,0-2.25.14-2.68.29v8.85Z"/>
    <path class="cls-9" d="M241.33,453.87c-1,.58-3,1.15-5.56,1.15-5.93,0-10.4-4.32-10.4-12.27s4.46-12.74,10.99-12.74c2.62,0,4.28.65,5,1.08l-.66,2.56c-1.03-.58-2.5-1.01-4.25-1.01-4.93,0-8.21,3.64-8.21,10.01,0,5.94,2.97,9.75,8.09,9.75,1.65,0,3.34-.4,4.43-1.01l.56,2.48Z"/>
    <path class="cls-9" d="M247.45,430.4v10.15h10.18v-10.15h2.75v24.26h-2.75v-11.38h-10.18v11.38h-2.72v-24.26h2.72Z"/>
    <path class="cls-9" d="M284.88,454.66c-.59-.68-1.16-1.37-1.97-2.38-1.81,1.94-3.84,2.77-6.15,2.77-4.09,0-6.46-3.17-6.46-6.8,0-3.31,1.72-5.58,4.12-7.09v-.11c-1.09-1.58-1.75-3.35-1.75-5.08,0-2.95,1.84-5.98,5.34-5.98,2.62,0,4.65,2.02,4.65,5.15,0,2.56-1.28,4.57-4.62,6.48v.11c1.78,2.38,3.78,5.04,5.12,6.77.97-1.69,1.62-4.03,2.03-7.09h2.5c-.56,3.82-1.47,6.84-3.03,8.96,1.12,1.37,2.22,2.74,3.47,4.28h-3.25ZM281.57,450.49c-1.25-1.58-3.59-4.54-5.93-7.63-1.12.83-2.72,2.38-2.72,4.93,0,2.77,1.78,4.9,4.31,4.9,1.81,0,3.34-.94,4.34-2.2ZM275.17,435.69c0,1.73.69,3.06,1.59,4.36,2.12-1.4,3.5-2.7,3.5-4.75,0-1.48-.72-3.13-2.44-3.13s-2.65,1.66-2.65,3.53Z"/>
    <path class="cls-9" d="M297.21,430.72c1.65-.29,3.62-.5,5.78-.5,3.9,0,6.68,1.04,8.52,3.02,1.87,1.98,2.97,4.79,2.97,8.71s-1.06,7.2-3.03,9.43c-1.97,2.27-5.21,3.49-9.3,3.49-1.94,0-3.56-.11-4.93-.29v-23.86ZM299.92,452.18c.69.14,1.69.18,2.75.18,5.81,0,8.96-3.74,8.96-10.29.03-5.72-2.78-9.36-8.52-9.36-1.4,0-2.47.14-3.18.32v19.15Z"/>
    <path class="cls-9" d="M328.89,443.29h-8.18v8.75h9.12v2.63h-11.83v-24.26h11.36v2.63h-8.65v7.67h8.18v2.59Z"/>
    <path class="cls-9" d="M338.25,454.66l-6.87-24.26h2.93l3.28,11.95c.91,3.28,1.69,6.23,2.25,9.07h.06c.59-2.81,1.47-5.87,2.4-9.04l3.56-11.99h2.9l-7.52,24.26h-3Z"/>
    <path class="cls-9" d="M361.95,443.29h-8.18v8.75h9.12v2.63h-11.83v-24.26h11.36v2.63h-8.65v7.67h8.18v2.59Z"/>
    <path class="cls-9" d="M366.41,430.4h2.72v21.63h8.99v2.63h-11.71v-24.26Z"/>
    <path class="cls-9" d="M397.91,442.28c0,8.35-4.4,12.78-9.77,12.78s-9.46-4.97-9.46-12.31c0-7.7,4.15-12.74,9.77-12.74s9.46,5.08,9.46,12.27ZM381.58,442.67c0,5.18,2.44,9.83,6.71,9.83s6.74-4.57,6.74-10.08c0-4.82-2.18-9.86-6.71-9.86s-6.74,4.79-6.74,10.12Z"/>
    <path class="cls-9" d="M401.43,430.69c1.31-.25,3.03-.47,5.21-.47,2.69,0,4.65.72,5.9,2.02,1.15,1.15,1.84,2.92,1.84,5.08s-.56,3.92-1.62,5.18c-1.44,1.76-3.78,2.66-6.43,2.66-.81,0-1.56-.04-2.19-.22v9.72h-2.72v-23.97ZM404.15,442.39c.59.18,1.34.25,2.25.25,3.28,0,5.28-1.84,5.28-5.18s-1.97-4.75-4.96-4.75c-1.19,0-2.09.11-2.56.25v9.43Z"/>
    <path class="cls-9" d="M435.4,444.01c-.16-3.38-.34-7.45-.31-10.47h-.09c-.72,2.84-1.59,5.87-2.65,9.21l-3.71,11.77h-2.06l-3.4-11.55c-1-3.42-1.84-6.55-2.43-9.43h-.06c-.06,3.02-.22,7.09-.41,10.73l-.56,10.4h-2.59l1.47-24.26h3.46l3.59,11.73c.87,2.99,1.59,5.65,2.12,8.17h.09c.53-2.45,1.28-5.11,2.22-8.17l3.75-11.73h3.47l1.31,24.26h-2.65l-.53-10.65Z"/>
    <path class="cls-9" d="M453.66,443.29h-8.18v8.75h9.12v2.63h-11.83v-24.26h11.36v2.63h-8.65v7.67h8.18v2.59Z"/>
    <path class="cls-9" d="M458.12,454.66v-24.26h2.97l6.74,12.27c1.56,2.84,2.78,5.4,3.78,7.88l.06-.04c-.25-3.24-.31-6.19-.31-9.97v-10.15h2.56v24.26h-2.75l-6.68-12.31c-1.47-2.7-2.87-5.47-3.93-8.1l-.09.04c.16,3.06.22,5.97.22,10.01v10.37h-2.56Z"/>
    <path class="cls-9" d="M482.65,433.06h-6.4v-2.66h15.58v2.66h-6.43v21.6h-2.75v-21.6Z"/>
  </g>
  <g>
    <path class="cls-9" d="M117.15,469.62h1.65v12.35h.06c.34-.99.68-1.9,1.01-2.74l3.91-9.61h2.05l-4.63,10.87,4.99,14.74h-1.95l-4.21-12.58-1.21,2.81v9.76h-1.65v-25.61Z"/>
    <path class="cls-9" d="M134.05,483.22h-4.97v9.23h5.54v2.77h-7.19v-25.61h6.9v2.77h-5.25v8.09h4.97v2.74Z"/>
    <path class="cls-9" d="M136.76,469.62h1.65v22.83h5.46v2.77h-7.11v-25.61Z"/>
    <path class="cls-9" d="M146.69,469.62v15.16c0,5.74,1.27,8.17,2.98,8.17,1.9,0,3.11-2.51,3.11-8.17v-15.16h1.67v14.93c0,7.87-2.07,11.09-4.84,11.09-2.62,0-4.59-3-4.59-10.94v-15.08h1.67Z"/>
    <path class="cls-9" d="M158.73,487.18l-1.33,8.05h-1.71l4.34-25.61h1.99l4.36,25.61h-1.76l-1.37-8.05h-4.53ZM162.92,484.59l-1.25-7.37c-.28-1.67-.47-3.19-.66-4.67h-.04c-.19,1.52-.4,3.08-.65,4.64l-1.25,7.41h3.85Z"/>
    <path class="cls-9" d="M168.28,469.96c.83-.34,2.03-.53,3.17-.53,1.76,0,2.9.65,3.7,2.09.64,1.14,1,2.89,1,4.86,0,3.38-1.06,5.62-2.41,6.53v.11c.99.68,1.57,2.51,1.88,5.17.42,3.57.72,6.04.99,7.03h-1.71c-.21-.72-.49-2.93-.85-6.12-.38-3.53-1.06-4.86-2.56-4.98h-1.56v11.09h-1.65v-25.27ZM169.93,481.63h1.69c1.76,0,2.88-1.94,2.88-4.86,0-3.31-1.19-4.75-2.94-4.79-.8,0-1.37.15-1.63.3v9.35Z"/>
    <path class="cls-9" d="M188.27,494.09c-.74.53-2.2,1.41-3.93,1.41-1.93,0-3.53-.99-4.78-3.38-1.1-2.13-1.78-5.55-1.78-9.54.02-7.64,2.64-13.22,6.92-13.22,1.48,0,2.64.65,3.19,1.18l-.4,2.7c-.68-.61-1.54-1.1-2.83-1.1-3.11,0-5.14,3.88-5.14,10.3s1.95,10.33,4.93,10.33c1.08,0,1.82-.3,2.2-.68v-7.64h-2.6v-2.66h4.21v12.31Z"/>
    <path class="cls-9" d="M192.86,487.18l-1.33,8.05h-1.71l4.34-25.61h1.99l4.36,25.61h-1.76l-1.37-8.05h-4.53ZM197.06,484.59l-1.25-7.37c-.28-1.67-.47-3.19-.66-4.67h-.04c-.19,1.52-.4,3.08-.65,4.64l-1.25,7.41h3.85Z"/>
    <path class="cls-9" d="M217.2,483.98c-.09-3.57-.21-7.87-.19-11.06h-.06c-.44,3-.97,6.19-1.61,9.73l-2.26,12.42h-1.25l-2.07-12.2c-.61-3.61-1.12-6.91-1.48-9.95h-.04c-.04,3.19-.13,7.49-.25,11.32l-.34,10.98h-1.57l.89-25.61h2.1l2.18,12.39c.53,3.15.97,5.96,1.29,8.62h.06c.32-2.58.78-5.39,1.35-8.62l2.28-12.39h2.11l.8,25.61h-1.61l-.32-11.25Z"/>
    <path class="cls-9" d="M223.56,487.18l-1.33,8.05h-1.71l4.34-25.61h1.99l4.36,25.61h-1.76l-1.37-8.05h-4.53ZM227.76,484.59l-1.25-7.37c-.28-1.67-.47-3.19-.66-4.67h-.04c-.19,1.52-.4,3.08-.65,4.64l-1.25,7.41h3.85Z"/>
    <path class="cls-9" d="M234.76,469.62v10.71h6.18v-10.71h1.67v25.61h-1.67v-12.01h-6.18v12.01h-1.65v-25.61h1.65Z"/>
    <path class="cls-9" d="M247.54,487.18l-1.33,8.05h-1.71l4.34-25.61h1.99l4.36,25.61h-1.76l-1.37-8.05h-4.53ZM251.74,484.59l-1.25-7.37c-.28-1.67-.47-3.19-.66-4.67h-.04c-.19,1.52-.4,3.08-.65,4.64l-1.25,7.41h3.85Z"/>
    <path class="cls-9" d="M256.86,491.2c.74.91,1.82,1.67,2.96,1.67,1.69,0,2.67-1.79,2.67-4.37,0-2.39-.68-3.76-2.41-5.09-2.09-1.48-3.38-3.65-3.38-7.26,0-3.99,1.65-6.95,4.13-6.95,1.31,0,2.26.61,2.83,1.25l-.46,2.7c-.42-.46-1.27-1.22-2.43-1.22-1.75,0-2.41,2.09-2.41,3.84,0,2.39.78,3.57,2.54,4.94,2.16,1.67,3.26,3.76,3.26,7.52,0,3.95-1.46,7.37-4.48,7.37-1.23,0-2.58-.72-3.26-1.63l.42-2.77Z"/>
    <path class="cls-9" d="M268.09,469.62v25.61h-1.65v-25.61h1.65Z"/>
    <path class="cls-9" d="M270.75,491.2c.74.91,1.82,1.67,2.96,1.67,1.69,0,2.67-1.79,2.67-4.37,0-2.39-.68-3.76-2.41-5.09-2.09-1.48-3.38-3.65-3.38-7.26,0-3.99,1.65-6.95,4.13-6.95,1.31,0,2.26.61,2.83,1.25l-.46,2.7c-.42-.46-1.27-1.22-2.43-1.22-1.75,0-2.41,2.09-2.41,3.84,0,2.39.78,3.57,2.54,4.94,2.16,1.67,3.26,3.76,3.26,7.52,0,3.95-1.46,7.37-4.48,7.37-1.23,0-2.58-.72-3.26-1.63l.42-2.77Z"/>
    <path class="cls-9" d="M282.42,495.23l-3.24-25.61h1.74l1.52,12.96c.38,3.19.72,6.38.95,8.85h.04c.21-2.54.61-5.58,1.04-8.89l1.71-12.92h1.73l1.56,12.99c.36,3.04.7,6.08.89,8.78h.04c.27-2.81.63-5.66,1.02-8.85l1.69-12.92h1.69l-3.62,25.61h-1.73l-1.61-13.34c-.4-3.27-.66-5.78-.83-8.36h-.04c-.23,2.54-.51,5.05-.99,8.36l-1.82,13.34h-1.73Z"/>
    <path class="cls-9" d="M297.37,487.18l-1.33,8.05h-1.71l4.34-25.61h1.99l4.36,25.61h-1.76l-1.37-8.05h-4.53ZM301.56,484.59l-1.25-7.37c-.28-1.67-.47-3.19-.66-4.67h-.04c-.19,1.52-.4,3.08-.65,4.64l-1.25,7.41h3.85Z"/>
    <path class="cls-9" d="M312.58,469.62v15.16c0,5.74,1.27,8.17,2.98,8.17,1.9,0,3.11-2.51,3.11-8.17v-15.16h1.67v14.93c0,7.87-2.07,11.09-4.84,11.09-2.62,0-4.59-3-4.59-10.94v-15.08h1.67Z"/>
    <path class="cls-9" d="M323.21,495.23v-25.61h1.8l4.1,12.96c.95,3,1.69,5.7,2.29,8.32l.04-.04c-.15-3.42-.19-6.54-.19-10.52v-10.71h1.56v25.61h-1.67l-4.06-12.99c-.89-2.85-1.74-5.78-2.39-8.55l-.06.04c.1,3.23.13,6.31.13,10.56v10.94h-1.56Z"/>
    <path class="cls-9" d="M337.34,469.62v25.61h-1.65v-25.61h1.65Z"/>
    <path class="cls-9" d="M343.03,495.23l-4.17-25.61h1.78l1.99,12.61c.55,3.46,1.02,6.57,1.37,9.57h.04c.36-2.96.89-6.19,1.46-9.54l2.16-12.65h1.76l-4.57,25.61h-1.82Z"/>
    <path class="cls-9" d="M357.43,483.22h-4.97v9.23h5.54v2.77h-7.19v-25.61h6.9v2.77h-5.25v8.09h4.97v2.74Z"/>
    <path class="cls-9" d="M360.15,469.96c.83-.34,2.03-.53,3.17-.53,1.76,0,2.9.65,3.7,2.09.64,1.14,1,2.89,1,4.86,0,3.38-1.06,5.62-2.41,6.53v.11c.99.68,1.57,2.51,1.88,5.17.42,3.57.72,6.04.99,7.03h-1.71c-.21-.72-.49-2.93-.85-6.12-.38-3.53-1.06-4.86-2.56-4.98h-1.55v11.09h-1.65v-25.27ZM361.8,481.63h1.69c1.76,0,2.88-1.94,2.88-4.86,0-3.31-1.19-4.75-2.94-4.79-.8,0-1.37.15-1.63.3v9.35Z"/>
    <path class="cls-9" d="M370.13,491.2c.74.91,1.82,1.67,2.96,1.67,1.69,0,2.67-1.79,2.67-4.37,0-2.39-.68-3.76-2.41-5.09-2.09-1.48-3.38-3.65-3.38-7.26,0-3.99,1.65-6.95,4.13-6.95,1.31,0,2.26.61,2.83,1.25l-.46,2.7c-.42-.46-1.27-1.22-2.43-1.22-1.74,0-2.41,2.09-2.41,3.84,0,2.39.78,3.57,2.54,4.94,2.16,1.67,3.26,3.76,3.26,7.52,0,3.95-1.46,7.37-4.48,7.37-1.23,0-2.58-.72-3.26-1.63l.42-2.77Z"/>
    <path class="cls-9" d="M381.36,469.62v25.61h-1.65v-25.61h1.65Z"/>
    <path class="cls-9" d="M386.67,472.43h-3.89v-2.81h9.46v2.81h-3.91v22.8h-1.67v-22.8Z"/>
    <path class="cls-9" d="M394.32,487.18l-1.33,8.05h-1.71l4.34-25.61h1.99l4.36,25.61h-1.76l-1.37-8.05h-4.53ZM398.51,484.59l-1.25-7.37c-.28-1.67-.47-3.19-.66-4.67h-.04c-.19,1.52-.4,3.08-.65,4.64l-1.25,7.41h3.85Z"/>
    <path class="cls-9" d="M403.63,491.2c.74.91,1.82,1.67,2.96,1.67,1.69,0,2.67-1.79,2.67-4.37,0-2.39-.68-3.76-2.41-5.09-2.09-1.48-3.38-3.65-3.38-7.26,0-3.99,1.65-6.95,4.13-6.95,1.31,0,2.26.61,2.83,1.25l-.46,2.7c-.42-.46-1.27-1.22-2.43-1.22-1.74,0-2.41,2.09-2.41,3.84,0,2.39.78,3.57,2.54,4.94,2.16,1.67,3.26,3.76,3.26,7.52,0,3.95-1.46,7.37-4.48,7.37-1.23,0-2.58-.72-3.26-1.63l.42-2.77Z"/>
    <path class="cls-9" d="M417.24,469.93c.8-.27,1.84-.49,3.17-.49,1.63,0,2.83.76,3.58,2.13.7,1.22,1.12,3.08,1.12,5.36s-.34,4.14-.99,5.47c-.87,1.86-2.29,2.81-3.91,2.81-.49,0-.95-.04-1.33-.23v10.26h-1.65v-25.3ZM418.89,482.27c.36.19.82.27,1.37.27,1.99,0,3.21-1.94,3.21-5.47s-1.19-5.02-3.02-5.02c-.72,0-1.27.11-1.55.27v9.95Z"/>
    <path class="cls-9" d="M427.81,487.18l-1.33,8.05h-1.71l4.34-25.61h1.99l4.36,25.61h-1.76l-1.37-8.05h-4.53ZM432,484.59l-1.25-7.37c-.28-1.67-.47-3.19-.66-4.67h-.04c-.19,1.52-.4,3.08-.65,4.64l-1.25,7.41h3.85Z"/>
    <path class="cls-9" d="M437.35,495.23v-25.61h1.8l4.1,12.96c.95,3,1.69,5.7,2.29,8.32l.04-.04c-.15-3.42-.19-6.54-.19-10.52v-10.71h1.56v25.61h-1.67l-4.06-12.99c-.89-2.85-1.75-5.78-2.39-8.55l-.06.04c.09,3.23.13,6.31.13,10.56v10.94h-1.56Z"/>
    <path class="cls-9" d="M458.77,494.39c-.61.61-1.82,1.22-3.38,1.22-3.6,0-6.32-4.56-6.32-12.96s2.71-13.45,6.68-13.45c1.59,0,2.6.68,3.03,1.14l-.4,2.7c-.63-.61-1.52-1.06-2.58-1.06-3,0-4.99,3.84-4.99,10.56,0,6.27,1.8,10.3,4.91,10.3,1.01,0,2.03-.42,2.69-1.06l.34,2.62Z"/>
    <path class="cls-9" d="M462.98,487.18l-1.33,8.05h-1.71l4.34-25.61h1.99l4.36,25.61h-1.76l-1.37-8.05h-4.53ZM467.17,484.59l-1.25-7.37c-.28-1.67-.47-3.19-.66-4.67h-.04c-.19,1.52-.4,3.08-.65,4.64l-1.25,7.41h3.85Z"/>
    <path class="cls-9" d="M472.3,491.2c.74.91,1.82,1.67,2.96,1.67,1.69,0,2.67-1.79,2.67-4.37,0-2.39-.68-3.76-2.41-5.09-2.09-1.48-3.38-3.65-3.38-7.26,0-3.99,1.65-6.95,4.13-6.95,1.31,0,2.26.61,2.83,1.25l-.46,2.7c-.42-.46-1.27-1.22-2.43-1.22-1.74,0-2.41,2.09-2.41,3.84,0,2.39.78,3.57,2.54,4.94,2.16,1.67,3.26,3.76,3.26,7.52,0,3.95-1.46,7.37-4.48,7.37-1.23,0-2.58-.72-3.26-1.63l.42-2.77Z"/>
    <path class="cls-9" d="M483.53,469.62v25.61h-1.65v-25.61h1.65Z"/>
    <path class="cls-9" d="M486.41,469.62h1.65v22.83h5.46v2.77h-7.11v-25.61Z"/>
    <path class="cls-9" d="M497.44,487.18l-1.33,8.05h-1.71l4.34-25.61h1.99l4.36,25.61h-1.76l-1.37-8.05h-4.53ZM501.63,484.59l-1.25-7.37c-.28-1.67-.47-3.19-.66-4.67h-.04c-.19,1.52-.4,3.08-.65,4.64l-1.25,7.41h3.85Z"/>
  </g>
</svg>