<svg xmlns="http://www.w3.org/2000/svg" xmlns:xlink="http://www.w3.org/1999/xlink" width="100" zoomAndPan="magnify" viewBox="0 0 75 74.999997" height="100" preserveAspectRatio="xMidYMid meet" version="1.0"><path fill="#000000" d="M 37.894531 1.707031 C 45.816406 5.027344 52.1875 8.257812 57.9375 12.257812 C 63.683594 16.257812 68.808594 21.03125 74.230469 27.460938 L 74.253906 27.488281 L 74.242188 27.53125 C 73.453125 35.910156 72.273438 42.828125 70.152344 49.394531 C 68.03125 55.957031 64.960938 62.183594 60.367188 69.210938 L 60.339844 69.238281 L 60.3125 69.25 C 51.890625 71.09375 44.78125 72.140625 37.730469 72.207031 C 30.664062 72.261719 23.652344 71.339844 15.390625 69.25 L 15.351562 69.238281 L 15.335938 69.195312 C 10.933594 61.953125 7.714844 55.6875 5.472656 49.164062 C 3.230469 42.625 1.964844 35.832031 1.449219 27.53125 L 1.449219 27.488281 L 1.476562 27.449219 C 7.183594 21.128906 12.292969 16.203125 17.960938 12.109375 C 23.640625 8.011719 29.875 4.742188 37.8125 1.691406 L 37.851562 1.679688 Z M 57.828125 12.40625 C 52.105469 8.433594 45.746094 5.21875 37.851562 1.894531 C 29.945312 4.917969 23.734375 8.1875 18.082031 12.269531 C 12.429688 16.355469 7.332031 21.25 1.652344 27.558594 C 2.15625 35.832031 3.421875 42.597656 5.664062 49.09375 C 7.890625 55.605469 11.085938 61.84375 15.472656 69.074219 C 23.707031 71.148438 30.691406 72.070312 37.730469 72.015625 C 44.753906 71.949219 51.835938 70.90625 60.234375 69.058594 C 64.796875 62.074219 67.855469 55.875 69.976562 49.339844 C 72.082031 42.789062 73.25 35.910156 74.050781 27.542969 C 68.65625 21.15625 63.546875 16.394531 57.828125 12.40625 Z M 57.828125 12.40625 " fill-opacity="1" fill-rule="nonzero"/><path fill="#000000" d="M 37.851562 3.917969 C 52.746094 10.167969 61.78125 16.015625 71.960938 28.085938 C 70.464844 43.832031 67.558594 54.03125 58.929688 67.203125 C 43.113281 70.6875 32.28125 71.136719 16.777344 67.203125 C 8.503906 53.597656 4.710938 43.683594 3.746094 28.085938 C 14.441406 16.203125 22.945312 9.625 37.851562 3.917969 Z M 37.851562 3.917969 " fill-opacity="1" fill-rule="evenodd"/><path fill="#fff212" d="M 44.484375 35.601562 C 44.539062 35.558594 46.808594 31.570312 47.691406 30.785156 C 48.914062 29.726562 51.25 28.558594 53.492188 28.558594 L 54.554688 28.558594 C 55.410156 28.558594 56.902344 29.144531 57.367188 29.605469 C 58.738281 30.976562 57.839844 31.207031 57.71875 32.289062 L 56.769531 32.980469 C 56.945312 33.226562 57.324219 33.390625 57.746094 33.390625 L 57.910156 33.390625 C 59.007812 33.390625 59.960938 32.058594 59.960938 30.851562 L 59.960938 30.445312 C 59.960938 28.996094 57.160156 25.902344 56.359375 24.789062 C 55.382812 23.421875 54.28125 19.445312 52.5 19.40625 C 51.605469 23.285156 48.832031 24.058594 46.265625 26.171875 C 44.972656 27.246094 44.347656 28.398438 43.722656 30.121094 C 43.546875 30.582031 44.144531 31.3125 44.335938 32.480469 C 44.457031 33.160156 44.226562 35.058594 44.484375 35.601562 Z M 44.484375 35.601562 " fill-opacity="1" fill-rule="evenodd"/><path fill="#fefefe" d="M 33.191406 34.121094 L 33.164062 34.460938 L 33.273438 36.007812 L 34.902344 35.761719 C 35.367188 37.484375 36.058594 35.316406 36.058594 34.285156 C 36.046875 33.035156 36.289062 31.800781 35.882812 30.785156 C 35.433594 29.699219 34.183594 29.742188 33.652344 30.757812 C 33.367188 31.339844 33.191406 33.210938 33.191406 34.121094 Z M 33.191406 34.121094 " fill-opacity="1" fill-rule="evenodd"/><path fill="#fefefe" d="M 41.128906 33.957031 L 41.128906 34.203125 L 41.261719 34.214844 L 41.210938 36.332031 L 42.757812 36.332031 C 44.414062 36.332031 43.546875 36.96875 43.65625 34.933594 C 43.710938 34.09375 43.695312 33.035156 43.558594 32.183594 C 43.316406 30.621094 41.128906 30.308594 41.128906 33.957031 Z M 41.128906 33.957031 " fill-opacity="1" fill-rule="evenodd"/><path fill="#fff212" d="M 14.195312 32.332031 L 14.195312 32.574219 C 14.195312 34.515625 15.691406 35.191406 17.714844 35.191406 C 17.675781 34.664062 16.410156 33.984375 16.410156 33.0625 L 16.410156 32.414062 C 16.410156 30.960938 18.585938 29.875 20.335938 29.875 L 21.480469 29.875 C 22.28125 29.875 26.277344 31.734375 26.398438 32.167969 L 26.832031 32.140625 L 27.035156 31.789062 L 27.132812 31.84375 C 27.214844 30.894531 28.3125 30.445312 29.332031 30.445312 C 30.039062 30.445312 30.324219 31.097656 30.324219 31.761719 L 30.339844 32.085938 L 29.917969 37.144531 L 30.433594 37.144531 L 30.8125 32.167969 C 31.019531 29.792969 28.421875 27.582031 26.914062 26.742188 C 24.792969 25.5625 23.054688 24.546875 21.546875 22.769531 C 20.324219 21.332031 20.664062 22.007812 19.617188 23.679688 C 19.007812 24.667969 18.433594 25.5625 17.757812 26.484375 C 16.628906 28.003906 14.195312 29.972656 14.195312 32.332031 Z M 14.195312 32.332031 " fill-opacity="1" fill-rule="evenodd"/><path fill="#fff212" d="M 19.101562 32.902344 C 20.214844 33.160156 19.972656 34.175781 19.808594 35.152344 C 19.644531 36.210938 18.746094 36.265625 18.015625 36.710938 C 17.171875 37.226562 14.523438 38.867188 14.523438 39.925781 L 14.523438 40.25 C 14.523438 41.582031 15.148438 43.492188 15.773438 44.320312 C 16.179688 44.863281 17.933594 46.980469 18.613281 47.046875 C 18.882812 45.90625 17.496094 44.183594 17.253906 42.4375 C 17.007812 40.632812 17.605469 38.707031 19.441406 38.707031 L 20.175781 38.707031 C 20.933594 38.707031 21.179688 39.070312 21.722656 39.113281 C 21.75 38.21875 22.117188 36.792969 22.484375 36.035156 C 22.675781 35.640625 24.347656 33.320312 24.347656 35.191406 C 25.160156 35.261719 25.324219 35.859375 25.324219 36.738281 L 25.324219 37.144531 C 25.324219 38.664062 24.808594 39.574219 25.433594 40.726562 C 25.730469 41.28125 26.683594 43.058594 27.214844 43.195312 C 28.136719 42.53125 27.144531 40.957031 26.792969 40.019531 C 26.34375 38.8125 26.289062 37.539062 26.179688 36.0625 C 26.058594 34.445312 25.339844 34.136719 24.304688 33.347656 C 23.695312 32.875 22.226562 31.761719 21.234375 31.761719 L 20.335938 31.761719 C 19.972656 31.761719 19.195312 32.546875 19.101562 32.902344 Z M 19.101562 32.902344 " fill-opacity="1" fill-rule="evenodd"/><path fill="#fff212" d="M 31.546875 15.402344 C 31.929688 15.972656 33.601562 17.925781 33.601562 18.511719 L 33.601562 18.671875 C 33.601562 19.433594 31.941406 20.394531 31.222656 20.394531 C 28.667969 20.394531 28.707031 18.359375 26.96875 17.683594 C 25.203125 16.992188 23.136719 18.429688 22.796875 19.90625 C 23.125 20.015625 26.058594 22.265625 27.023438 22.78125 C 28.53125 23.625 29.945312 24.613281 30.785156 26.214844 C 31.738281 28.03125 31.792969 29.632812 31.792969 32.332031 C 31.792969 33.578125 31.886719 34.691406 31.875 35.84375 C 31.859375 37.472656 32.390625 38.09375 32.445312 38.867188 C 33.289062 38.652344 32.621094 33.890625 32.609375 32.492188 C 32.609375 30.933594 32.484375 30.40625 33.679688 29.957031 C 34.332031 29.699219 33.679688 28.34375 33.679688 27.09375 C 35.910156 27.609375 35.3125 27.09375 35.3125 29.46875 C 36.78125 31 36.875 31.328125 36.875 34.285156 C 36.875 35.273438 36.628906 37.28125 36.902344 38.015625 C 37.011719 38.285156 38.179688 40.523438 38.261719 40.578125 L 38.4375 40.605469 L 38.914062 34.609375 L 38.941406 32.003906 L 38.640625 27.664062 L 38.695312 27.734375 L 40.679688 27.054688 L 40.652344 27.175781 L 40.394531 32.25 C 41.046875 32.195312 41.113281 30.148438 42.59375 30.121094 C 42.59375 28.980469 43.355469 27.257812 43.710938 26.324219 C 44.402344 24.449219 44.101562 24.355469 45.542969 23.164062 C 46.5625 22.308594 50.3125 19.40625 50.789062 18.511719 C 50.273438 17.75 48.710938 17.003906 47.746094 16.625 C 46.726562 16.230469 45.042969 17.34375 44.484375 18.023438 C 43.140625 19.664062 43.398438 19.078125 43.261719 21.699219 C 43.191406 22.90625 41.523438 23.664062 40.230469 23.664062 L 39.90625 24.300781 L 38.914062 24.070312 L 38.996094 24.980469 L 35.597656 25.835938 L 35.554688 25.710938 C 36.113281 27.761719 40.542969 24.84375 41.359375 24.410156 L 41.78125 24.964844 C 41.550781 25.292969 39.429688 27.09375 39.074219 27.09375 L 38.261719 27.109375 L 34.171875 26.527344 L 33.761719 26.527344 C 33.3125 26.527344 31.710938 27.867188 31.710938 26.933594 L 31.710938 26.605469 C 31.710938 25.738281 32.648438 25.792969 32.011719 24.679688 C 31.34375 23.515625 32.324219 23.230469 31.371094 23.214844 L 30.570312 21.535156 C 31.859375 21.425781 35.542969 18.550781 36.957031 18.511719 C 39.511719 18.441406 38.996094 18.539062 40.246094 17.140625 C 41.085938 16.21875 43.097656 16.273438 43.179688 15.324219 C 39.632812 14.496094 35.257812 14.535156 31.546875 15.402344 Z M 31.546875 15.402344 " fill-opacity="1" fill-rule="evenodd"/><path fill="#fefefe" d="M 39.824219 40.835938 L 39.824219 41.324219 L 39.808594 41.40625 L 42.023438 41.566406 L 42.039062 41.253906 L 40.800781 41.160156 L 40.800781 40.917969 C 40.800781 40.226562 42.582031 41.40625 43.503906 41.40625 L 43.832031 38.21875 L 43.832031 37.890625 C 43.832031 37.242188 42.226562 38.136719 41.617188 38.136719 C 41.65625 37.632812 42.488281 37.269531 41.617188 37.199219 C 41.085938 37.144531 40.9375 37.632812 40.84375 38.175781 C 40.734375 38.882812 40.421875 40.671875 39.824219 40.835938 Z M 39.824219 40.835938 " fill-opacity="1" fill-rule="evenodd"/><path fill="#fefefe" d="M 22.132812 39.4375 L 22.117188 40.429688 L 22.226562 41.324219 L 22.238281 41.226562 L 25.054688 41.921875 L 25.269531 41.757812 L 24.605469 39.546875 L 24.402344 39.710938 L 22.757812 39.179688 L 23.125 38.460938 C 23.613281 38.460938 24.917969 38.707031 24.917969 38.136719 L 24.917969 37.066406 C 24.917969 35.695312 24.6875 36.0625 24.425781 35.355469 C 22.8125 35.355469 22.132812 37.851562 22.132812 39.4375 Z M 22.132812 39.4375 " fill-opacity="1" fill-rule="evenodd"/><path fill="#fefefe" d="M 29.902344 31.597656 C 29.875 31.179688 29.589844 30.851562 29.171875 30.851562 L 28.925781 30.851562 C 27.320312 30.851562 26.4375 34.527344 26.574219 36.480469 C 26.644531 37.59375 27.078125 38.71875 27.390625 39.667969 C 27.582031 40.210938 27.972656 42.855469 28.027344 42.949219 L 28.191406 43.167969 L 30.148438 41.742188 L 30.109375 41.621094 L 29.5625 41.09375 C 30.554688 40.605469 31.804688 41.730469 30.175781 39.167969 C 29.820312 38.609375 29.617188 38.433594 29.535156 37.675781 C 29.402344 36.359375 29.441406 37.308594 28.519531 37.308594 L 28.355469 37.308594 C 27.539062 37.308594 27.769531 36.875 28.355469 36.820312 L 28.164062 36.265625 L 29.457031 36.265625 Z M 29.902344 31.597656 " fill-opacity="1" fill-rule="evenodd"/><path fill="#fff212" d="M 46.617188 43.777344 C 47.078125 43.464844 47.609375 43.179688 47.675781 42.460938 C 46.792969 42.460938 45.367188 43.003906 45.300781 43.859375 Z M 46.617188 43.777344 " fill-opacity="1" fill-rule="evenodd"/><path fill="#fff212" d="M 52.71875 46.695312 L 52.5 46.722656 C 53.75 46.421875 54.632812 45.542969 54.632812 44.023438 L 54.632812 42.625 C 54.632812 41.609375 54.226562 40.535156 53.902344 39.84375 L 52.324219 41.132812 Z M 52.71875 46.695312 " fill-opacity="1" fill-rule="evenodd"/><path fill="#fff212" d="M 54.308594 32.492188 C 54.308594 31.953125 54.878906 31.53125 55.285156 31.421875 L 55.285156 31.015625 C 54.703125 30.976562 54.308594 30.445312 53.492188 30.445312 L 52.988281 30.445312 C 50.488281 30.445312 48.832031 32.914062 47.867188 34.554688 C 47.390625 35.371094 44.578125 39.898438 44.566406 40.496094 L 46.277344 40.496094 C 46.605469 39.316406 47.050781 36.753906 48.085938 36.398438 C 48.886719 36.113281 49.539062 36.929688 49.960938 37.324219 C 50.789062 38.082031 50.695312 38.027344 51.738281 37.527344 C 52.976562 36.929688 54.527344 36.074219 56.144531 37.039062 C 57.027344 37.554688 58.070312 39.507812 58.070312 40.917969 C 58.070312 42.355469 56.496094 45.09375 56.769531 45.648438 C 57.691406 45.554688 60.695312 40.578125 60.695312 38.949219 C 60.695312 36.875 59.457031 35.234375 57.625 35.328125 C 57.296875 35.34375 54.308594 34.296875 54.308594 32.980469 Z M 54.308594 32.492188 " fill-opacity="1" fill-rule="evenodd"/><path fill="#fff212" d="M 22.878906 45.082031 C 22.878906 44.320312 22.511719 44.457031 22.347656 43.804688 C 22.226562 43.359375 22.199219 42.816406 22.089844 42.339844 C 21.820312 41.078125 20.910156 40.617188 20.746094 40.171875 C 19.738281 40.199219 20.488281 41.296875 20.609375 41.851562 C 20.785156 42.585938 20.882812 43.414062 20.933594 44.226562 C 21.015625 45.40625 21.179688 47.738281 22.375 48.023438 C 22.457031 47.671875 22.878906 46.464844 22.878906 46.136719 Z M 22.878906 45.082031 " fill-opacity="1" fill-rule="evenodd"/><path fill="#fefefe" d="M 51.605469 42.136719 C 51.605469 40.226562 50.015625 38.394531 48.953125 37.417969 C 46.847656 35.503906 47.515625 40.792969 47.515625 42.054688 L 49.808594 42 L 49.117188 42.503906 L 50.042969 42.949219 L 49.972656 43.113281 C 49.363281 43.414062 48.941406 42.667969 48.21875 43.25 C 47.5 43.859375 47.882812 43.667969 46.929688 44.171875 C 46.316406 44.511719 44.523438 44.632812 43.546875 44.890625 C 42.867188 45.066406 41.128906 45.976562 40.585938 46.34375 C 40.136719 46.652344 38.421875 48.417969 38.34375 48.429688 L 38.273438 48.605469 L 30.746094 45.433594 L 30.839844 45.1875 L 38.109375 47.984375 C 39.15625 47.316406 39.539062 46.492188 41.058594 45.675781 C 41.601562 45.378906 44.523438 44.292969 44.566406 43.859375 L 44.375 43.628906 L 44.347656 43.464844 L 36.792969 46.234375 L 36.726562 46.042969 L 42.132812 44.078125 L 41.957031 43.492188 L 34.511719 45.40625 L 34.496094 45.324219 L 34.496094 45 C 35.269531 45 38.601562 44.429688 38.179688 43.75 C 38.164062 43.75 34.101562 43.277344 34.007812 43.277344 L 33.925781 43.277344 C 32.894531 43.277344 32.132812 43.695312 31.304688 43.777344 C 31.371094 43.003906 33.464844 42.925781 34.332031 42.949219 L 34.332031 43.074219 L 43.898438 43.359375 L 44.101562 42.992188 L 42.921875 41.90625 L 42.675781 41.894531 L 42.71875 42.203125 L 41.210938 42.339844 L 40.558594 42.300781 C 39.414062 42.300781 39.578125 41.878906 38.640625 41.757812 C 37.878906 41.664062 37.160156 41.675781 36.386719 41.636719 C 35.214844 41.59375 35.324219 41.433594 34.277344 41.839844 C 33.914062 41.972656 32.5 42.273438 32.445312 41.730469 C 33.859375 41.730469 34.851562 41.714844 34.496094 40.414062 L 34.496094 40.238281 L 37.609375 40.277344 L 37.636719 40.484375 L 36.195312 36.914062 L 33.585938 37.144531 L 33.601562 37.226562 C 33.3125 37.429688 33.410156 39.355469 33.246094 39.816406 C 32.757812 41.148438 32.417969 40.386719 31.574219 41.023438 C 30.992188 41.460938 31.289062 42.285156 30.378906 42.679688 C 29.441406 43.101562 29.089844 43.101562 29.089844 44.105469 L 28.925781 44.105469 C 29.074219 42.328125 25.367188 45.324219 25.242188 45.40625 L 25.378906 45.242188 L 24.699219 44.699219 L 24.507812 44.621094 L 26.425781 43.886719 L 26.480469 44.023438 L 26.480469 42.871094 L 26.382812 43.019531 L 25.132812 42.273438 L 22.375 41.867188 C 22.375 42.828125 23.722656 46.070312 24.195312 46.695312 C 24.863281 47.574219 26.875 49.148438 27.933594 49.664062 C 31.371094 51.304688 28.75 50.941406 32.8125 50.425781 C 34.6875 50.179688 36.957031 49.910156 38.914062 49.910156 L 41.046875 49.910156 L 45.625 50.382812 L 45.789062 50.398438 C 46.058594 50.398438 49.160156 47.847656 49.445312 47.496094 C 50.3125 46.421875 51.605469 44.984375 51.605469 43.113281 Z M 51.605469 42.136719 " fill-opacity="1" fill-rule="evenodd"/><path fill="#fff212" d="M 47.023438 50.722656 C 49.550781 50.777344 47.933594 51.863281 50.925781 50.453125 C 52.148438 49.882812 53.75 50.113281 55.339844 49.949219 C 57.734375 49.71875 57.527344 49.734375 58.914062 48.457031 C 59.417969 47.996094 60.898438 46.070312 60.859375 45.488281 C 59.921875 45.570312 58.234375 48.171875 54.199219 48.335938 C 52.652344 48.390625 51.019531 48.347656 49.863281 48.808594 C 49.253906 49.054688 47.066406 50.167969 47.023438 50.722656 Z M 47.023438 50.722656 " fill-opacity="1" fill-rule="evenodd"/><path fill="#fff212" d="M 16.085938 49.246094 L 16.085938 49 L 15.828125 49 C 15.878906 50.886719 18.339844 52.433594 20.5 52.105469 L 23.777344 51.710938 L 24.265625 51.699219 L 24.304688 51.984375 L 28.546875 51.402344 L 28.519531 51.210938 L 28.519531 50.96875 C 28.246094 50.941406 26.25 50.289062 25.472656 50.167969 C 24.453125 50.003906 22.960938 49.828125 22.035156 50.058594 C 20.757812 50.382812 20.308594 50.382812 18.9375 50.152344 C 18.042969 50.003906 16.640625 49.296875 16.085938 49.246094 Z M 16.085938 49.246094 " fill-opacity="1" fill-rule="evenodd"/><path fill="#fff212" d="M 19.929688 56.773438 C 20.285156 57.3125 21.042969 58.101562 21.492188 58.644531 C 22.132812 59.417969 22.265625 60.136719 23.285156 59.390625 C 24.238281 58.699219 26.75 57.667969 27.917969 57.234375 C 31.617188 55.835938 34.238281 55.078125 39.089844 55.050781 C 43.097656 55.035156 46.453125 56.132812 49.890625 57.328125 C 51.210938 57.789062 53.289062 58.875 54.445312 59.59375 C 55.367188 60.164062 55.410156 59.632812 56.074219 58.628906 C 56.359375 58.195312 57.378906 57.03125 57.421875 56.609375 C 56.605469 56.390625 54.566406 54.804688 53.425781 54.304688 C 52.011719 53.664062 50.585938 53.054688 49.035156 52.472656 C 45.542969 51.183594 42.664062 50.941406 38.683594 50.683594 C 31.5625 50.222656 24.128906 53.964844 19.929688 56.773438 Z M 19.929688 56.773438 " fill-opacity="1" fill-rule="evenodd"/><path fill="#fff212" d="M 33.179688 57.84375 C 33.695312 58.507812 34.359375 59.1875 35.542969 59.105469 C 36.820312 59.023438 36.753906 57.652344 36.113281 56.949219 C 35.230469 56 33.761719 57.191406 35.800781 57.667969 L 35.476562 58.289062 L 35.394531 58.238281 C 34.671875 58.589844 33.394531 56.675781 33.273438 56.121094 C 31.386719 56.160156 32.527344 57.003906 33.179688 57.84375 Z M 33.179688 57.84375 " fill-opacity="1" fill-rule="evenodd"/><path fill="#fff212" d="M 43.015625 59.144531 C 44.265625 59.144531 47.433594 56.121094 45.054688 56.121094 C 44.863281 56.921875 42.566406 59.621094 42.511719 57.667969 C 43.613281 57.570312 43.75 56.730469 43.015625 56.636719 C 42.417969 56.554688 41.78125 57.179688 41.78125 57.667969 L 41.78125 58.316406 C 41.78125 58.792969 42.460938 59.144531 43.015625 59.144531 Z M 43.015625 59.144531 " fill-opacity="1" fill-rule="evenodd"/><path fill="#fff212" d="M 25.324219 59.933594 L 25 59.0625 L 24.589844 59.0625 C 23.816406 59.0625 23.042969 59.945312 22.457031 59.960938 L 22.457031 60.203125 L 22.960938 60.203125 L 22.960938 60.054688 Z M 25.324219 59.933594 " fill-opacity="1" fill-rule="evenodd"/><path fill="#fff212" d="M 59.867188 61.601562 C 60.125 60.5 61.511719 59.457031 61.511719 58.316406 L 61.511719 58.074219 C 61.511719 57.652344 60.804688 56.378906 60.449219 56.285156 C 60.21875 56.609375 60.152344 57.367188 59.933594 57.816406 C 59.785156 58.113281 59.324219 58.601562 59.0625 58.996094 C 58.382812 60.054688 59.335938 61.453125 59.867188 61.601562 Z M 59.867188 61.601562 " fill-opacity="1" fill-rule="evenodd"/><path fill="#fff212" d="M 19.441406 60.691406 C 19.332031 60.296875 18.109375 59.375 17.742188 58.941406 C 16.925781 57.964844 16.898438 58.019531 16.113281 59.253906 C 15.566406 60.109375 15.746094 61.070312 16.480469 61.613281 C 16.628906 61.722656 18.488281 62.890625 18.53125 62.902344 L 18.421875 62.847656 Z M 19.441406 60.691406 " fill-opacity="1" fill-rule="evenodd"/><path fill="#fff212" d="M 59.050781 61.761719 C 59.050781 60.964844 58.25 60.746094 58.234375 59.632812 C 58.222656 58.535156 58.058594 57.761719 56.945312 58.332031 C 55.3125 59.144531 57.203125 60.296875 53.464844 60.5 C 49.972656 60.691406 54.6875 62.359375 55.082031 62.535156 C 55.667969 62.808594 56.605469 63.214844 57.175781 63.390625 C 57.949219 63.621094 59.050781 63.269531 59.050781 62.578125 Z M 59.050781 61.761719 " fill-opacity="1" fill-rule="evenodd"/><path fill="#fff212" d="M 19.265625 63.636719 C 19.265625 64.027344 19.996094 64.203125 20.417969 64.203125 C 21.996094 64.203125 25.664062 61.914062 25.730469 61.097656 C 25.664062 60.828125 25.269531 60.527344 24.917969 60.527344 L 24.507812 60.527344 C 23.476562 60.527344 23.015625 61.273438 22.117188 60.378906 C 21.832031 60.109375 20.933594 58.738281 20.664062 58.738281 L 20.257812 58.738281 C 19.996094 58.738281 19.738281 59.28125 19.34375 59.390625 C 19.34375 60.515625 20.472656 60.203125 20.050781 61.125 C 19.78125 61.707031 19.265625 62.222656 19.265625 62.984375 Z M 19.265625 63.636719 " fill-opacity="1" fill-rule="evenodd"/><path fill="#fff212" d="M 34.902344 61.097656 C 34.902344 61.683594 35.84375 62.25 36.003906 61.585938 C 36.074219 61.316406 35.515625 60.191406 36.671875 60.625 C 37.960938 61.113281 37.144531 62.644531 36.140625 62.996094 C 34.359375 63.621094 32.445312 59.796875 30.570312 60.691406 L 31.398438 61.492188 L 31.304688 61.601562 C 30.949219 61.964844 29.046875 62.019531 28.679688 63.160156 C 28.3125 64.355469 29.128906 65.355469 30.40625 65.355469 L 30.8125 65.355469 C 31.617188 65.355469 32.144531 64.679688 31.957031 63.878906 C 31.125 63.6875 29.375 65.4375 29.414062 63.472656 C 29.441406 63.472656 30.257812 62.902344 30.488281 62.902344 L 31.792969 62.902344 C 31.875 62.902344 35.691406 64.125 35.71875 64.125 L 36.628906 64.125 C 37.5 64.125 38.75 62.941406 38.75 62.007812 L 38.75 61.601562 C 38.75 59.363281 34.902344 59.171875 34.902344 60.609375 Z M 34.902344 61.097656 " fill-opacity="1" fill-rule="evenodd"/><path fill="#fff212" d="M 47.023438 60.609375 C 45.691406 60.609375 44.550781 62.496094 43.058594 62.957031 C 42.078125 63.253906 41.304688 62.683594 41.058594 61.964844 C 40.652344 60.71875 42.351562 60.285156 42.351562 60.855469 L 42.351562 61.34375 C 42.351562 61.886719 42.105469 61.925781 43.015625 61.925781 C 43.476562 60.609375 43.683594 59.566406 41.65625 59.6875 C 40.367188 59.753906 39.578125 60.71875 39.578125 62.089844 L 39.578125 62.25 C 39.578125 63.078125 41.003906 64.125 41.941406 64.125 L 42.351562 64.125 C 43.628906 64.125 48.710938 61.628906 48.898438 63.960938 C 48.425781 64.136719 48.941406 64.449219 48.246094 64.449219 L 48.085938 64.449219 C 46.589844 64.449219 47.730469 63.796875 46.371094 63.796875 C 46.195312 64.53125 46.34375 65.277344 47.269531 65.277344 L 48.738281 65.277344 C 49.402344 65.277344 51.140625 62.710938 47.023438 61.761719 L 47.269531 60.9375 C 47.90625 60.921875 47.703125 60.609375 47.433594 60.609375 Z M 47.023438 60.609375 " fill-opacity="1" fill-rule="evenodd"/><path fill="#fefefe" d="M 32.117188 26.769531 C 32.824219 26.769531 33.421875 25.792969 34.089844 25.46875 C 34.824219 25.089844 35.570312 24.734375 36.304688 24.410156 C 37.457031 23.894531 37.132812 23.394531 38.070312 22.90625 C 39.28125 22.253906 39.320312 22.59375 39.320312 20.800781 C 40.976562 20.761719 40.53125 21.128906 41.601562 19.960938 C 41.792969 19.746094 43.03125 18.0625 43.03125 18.023438 C 43.03125 16.773438 39.335938 19.269531 38.761719 19.582031 C 36.492188 20.800781 33.355469 24.4375 32.117188 26.769531 Z M 32.117188 26.769531 " fill-opacity="1" fill-rule="evenodd"/><path fill="#272424" d="M 21.507812 56.648438 L 21.820312 56.445312 L 22.621094 57.585938 C 22.742188 57.761719 22.824219 57.871094 22.878906 57.925781 C 22.945312 58.007812 23.027344 58.046875 23.109375 58.058594 C 23.203125 58.085938 23.285156 58.058594 23.382812 58.007812 C 23.476562 57.953125 23.515625 57.882812 23.53125 57.800781 C 23.542969 57.722656 23.53125 57.640625 23.488281 57.570312 C 23.449219 57.492188 23.367188 57.367188 23.246094 57.207031 L 22.429688 56.054688 L 22.757812 55.847656 L 23.53125 56.949219 C 23.707031 57.191406 23.816406 57.382812 23.871094 57.492188 C 23.9375 57.597656 23.964844 57.707031 23.964844 57.816406 C 23.964844 57.910156 23.953125 58.007812 23.898438 58.101562 C 23.855469 58.195312 23.761719 58.277344 23.640625 58.359375 C 23.488281 58.453125 23.367188 58.507812 23.257812 58.507812 C 23.136719 58.523438 23.042969 58.496094 22.945312 58.453125 C 22.851562 58.414062 22.757812 58.34375 22.6875 58.277344 C 22.578125 58.167969 22.457031 58.007812 22.28125 57.761719 Z M 24.5625 57.695312 L 23.285156 55.496094 L 23.613281 55.320312 L 25.132812 56.433594 L 24.292969 54.953125 L 24.589844 54.792969 L 25.867188 57.003906 L 25.542969 57.179688 L 24.035156 56.09375 L 24.863281 57.53125 Z M 26.222656 56.824219 L 25.027344 54.589844 L 25.367188 54.410156 L 26.5625 56.664062 Z M 27.335938 56.296875 L 25.652344 54.25 L 26.03125 54.085938 L 27.253906 55.605469 L 26.886719 53.71875 L 27.253906 53.570312 L 27.714844 56.132812 Z M 28.503906 55.824219 L 27.648438 53.449219 L 28.980469 53 L 29.128906 53.410156 L 28.164062 53.734375 L 28.355469 54.25 L 29.25 53.964844 L 29.402344 54.359375 L 28.492188 54.65625 L 28.722656 55.308594 L 29.726562 54.980469 L 29.875 55.375 Z M 30.175781 55.238281 L 29.496094 52.8125 L 30.269531 52.609375 C 30.472656 52.554688 30.625 52.539062 30.71875 52.566406 C 30.828125 52.582031 30.910156 52.636719 31.003906 52.742188 C 31.085938 52.839844 31.140625 52.960938 31.179688 53.109375 C 31.234375 53.285156 31.234375 53.449219 31.195312 53.585938 C 31.140625 53.71875 31.046875 53.828125 30.894531 53.910156 C 30.992188 53.949219 31.074219 53.992188 31.152344 54.058594 C 31.222656 54.113281 31.332031 54.234375 31.464844 54.398438 L 31.820312 54.820312 L 31.386719 54.925781 L 30.964844 54.464844 C 30.8125 54.304688 30.71875 54.207031 30.679688 54.167969 C 30.625 54.128906 30.582031 54.101562 30.527344 54.085938 C 30.488281 54.085938 30.421875 54.085938 30.339844 54.113281 L 30.257812 54.128906 L 30.542969 55.144531 Z M 30.148438 53.734375 L 30.433594 53.664062 C 30.609375 53.625 30.71875 53.585938 30.746094 53.558594 C 30.785156 53.53125 30.8125 53.476562 30.828125 53.421875 C 30.839844 53.367188 30.839844 53.300781 30.8125 53.230469 C 30.785156 53.152344 30.761719 53.082031 30.707031 53.042969 C 30.664062 53 30.609375 52.988281 30.542969 52.988281 C 30.515625 52.988281 30.421875 53.015625 30.269531 53.042969 L 29.984375 53.125 Z M 31.765625 53.976562 L 32.117188 53.855469 C 32.171875 54.003906 32.253906 54.128906 32.335938 54.179688 C 32.417969 54.25 32.511719 54.261719 32.636719 54.25 C 32.757812 54.222656 32.839844 54.167969 32.878906 54.085938 C 32.933594 54.003906 32.949219 53.921875 32.921875 53.828125 C 32.90625 53.773438 32.878906 53.71875 32.851562 53.691406 C 32.8125 53.652344 32.757812 53.625 32.6875 53.613281 C 32.648438 53.597656 32.539062 53.585938 32.363281 53.558594 C 32.144531 53.53125 31.996094 53.488281 31.886719 53.410156 C 31.75 53.285156 31.65625 53.136719 31.601562 52.945312 C 31.574219 52.8125 31.574219 52.6875 31.617188 52.566406 C 31.644531 52.457031 31.699219 52.351562 31.792969 52.28125 C 31.875 52.199219 31.996094 52.148438 32.132812 52.121094 C 32.363281 52.066406 32.554688 52.105469 32.703125 52.214844 C 32.851562 52.324219 32.960938 52.5 33.015625 52.714844 L 32.636719 52.8125 C 32.59375 52.6875 32.539062 52.609375 32.472656 52.566406 C 32.417969 52.511719 32.324219 52.511719 32.226562 52.527344 C 32.117188 52.554688 32.039062 52.59375 31.984375 52.675781 C 31.957031 52.714844 31.941406 52.769531 31.957031 52.839844 C 31.96875 52.894531 31.996094 52.945312 32.050781 52.972656 C 32.105469 53.015625 32.242188 53.054688 32.429688 53.070312 C 32.621094 53.082031 32.769531 53.125 32.878906 53.164062 C 32.976562 53.203125 33.054688 53.273438 33.136719 53.367188 C 33.207031 53.476562 33.261719 53.597656 33.300781 53.746094 C 33.328125 53.898438 33.328125 54.03125 33.300781 54.167969 C 33.261719 54.304688 33.207031 54.410156 33.109375 54.492188 C 33.015625 54.574219 32.878906 54.628906 32.714844 54.667969 C 32.484375 54.710938 32.296875 54.683594 32.132812 54.5625 C 31.96875 54.4375 31.847656 54.25 31.765625 53.976562 Z M 33.75 54.453125 L 33.289062 51.96875 L 33.667969 51.902344 L 34.128906 54.386719 Z M 34.917969 54.25 L 34.617188 52.1875 L 34.0625 52.253906 L 33.992188 51.835938 L 35.488281 51.632812 L 35.542969 52.050781 L 35 52.132812 L 35.296875 54.207031 Z M 37.636719 54.058594 L 37.214844 54.085938 L 37.011719 53.515625 L 36.261719 53.558594 L 36.128906 54.140625 L 35.734375 54.167969 L 36.332031 51.605469 L 36.738281 51.589844 Z M 36.875 53.109375 L 36.5625 52.1875 L 36.359375 53.136719 Z M 37.691406 53.230469 L 38.070312 53.175781 C 38.097656 53.339844 38.136719 53.460938 38.207031 53.542969 C 38.289062 53.625 38.371094 53.652344 38.492188 53.652344 C 38.613281 53.652344 38.707031 53.613281 38.761719 53.542969 C 38.832031 53.476562 38.859375 53.394531 38.859375 53.300781 C 38.859375 53.246094 38.84375 53.191406 38.816406 53.152344 C 38.789062 53.109375 38.734375 53.070312 38.683594 53.042969 C 38.628906 53.027344 38.53125 52.988281 38.371094 52.933594 C 38.164062 52.878906 38.015625 52.796875 37.933594 52.703125 C 37.8125 52.554688 37.746094 52.390625 37.746094 52.1875 C 37.746094 52.066406 37.769531 51.945312 37.824219 51.835938 C 37.878906 51.710938 37.949219 51.632812 38.058594 51.578125 C 38.152344 51.507812 38.273438 51.480469 38.421875 51.480469 C 38.667969 51.46875 38.84375 51.535156 38.96875 51.671875 C 39.089844 51.808594 39.15625 51.996094 39.171875 52.226562 L 38.789062 52.253906 C 38.761719 52.132812 38.722656 52.039062 38.667969 51.984375 C 38.613281 51.929688 38.53125 51.902344 38.421875 51.902344 C 38.316406 51.902344 38.234375 51.929688 38.164062 51.996094 C 38.125 52.039062 38.109375 52.09375 38.109375 52.148438 C 38.109375 52.214844 38.136719 52.269531 38.164062 52.308594 C 38.21875 52.351562 38.34375 52.417969 38.53125 52.472656 C 38.707031 52.527344 38.859375 52.582031 38.941406 52.636719 C 39.035156 52.703125 39.101562 52.785156 39.15625 52.894531 C 39.210938 53 39.238281 53.136719 39.238281 53.300781 C 39.238281 53.433594 39.210938 53.570312 39.15625 53.707031 C 39.101562 53.828125 39.019531 53.921875 38.914062 53.992188 C 38.789062 54.046875 38.65625 54.085938 38.492188 54.085938 C 38.261719 54.085938 38.070312 54.019531 37.933594 53.871094 C 37.8125 53.734375 37.730469 53.515625 37.691406 53.230469 Z M 40.3125 54.101562 L 40.449219 51.578125 L 41.058594 51.617188 C 41.304688 51.632812 41.453125 51.644531 41.523438 51.671875 C 41.628906 51.710938 41.710938 51.808594 41.78125 51.929688 C 41.847656 52.066406 41.875 52.226562 41.863281 52.433594 C 41.847656 52.582031 41.820312 52.714844 41.78125 52.8125 C 41.726562 52.921875 41.671875 53 41.601562 53.054688 C 41.535156 53.109375 41.46875 53.152344 41.398438 53.164062 C 41.304688 53.191406 41.167969 53.191406 40.992188 53.175781 L 40.746094 53.164062 L 40.691406 54.113281 Z M 40.816406 52.023438 L 40.773438 52.742188 L 40.976562 52.757812 C 41.128906 52.757812 41.238281 52.757812 41.289062 52.730469 C 41.332031 52.703125 41.386719 52.664062 41.414062 52.609375 C 41.441406 52.554688 41.46875 52.484375 41.46875 52.417969 C 41.46875 52.324219 41.453125 52.253906 41.414062 52.1875 C 41.386719 52.121094 41.332031 52.09375 41.261719 52.066406 C 41.222656 52.050781 41.128906 52.039062 40.992188 52.039062 Z M 43.574219 54.453125 L 43.164062 54.398438 L 43.085938 53.800781 L 42.335938 53.707031 L 42.09375 54.25 L 41.699219 54.195312 L 42.785156 51.792969 L 43.191406 51.847656 Z M 43.03125 53.367188 L 42.90625 52.40625 L 42.511719 53.300781 Z M 43.804688 54.480469 L 44.347656 52.011719 L 44.714844 52.09375 L 45.109375 53.898438 L 45.476562 52.242188 L 45.816406 52.308594 L 45.273438 54.777344 L 44.890625 54.710938 L 44.511719 52.945312 L 44.144531 54.546875 Z M 47.078125 54.316406 L 47.390625 54.5625 C 47.269531 54.820312 47.121094 54.980469 46.957031 55.089844 C 46.792969 55.183594 46.605469 55.199219 46.414062 55.15625 C 46.167969 55.089844 46.003906 54.925781 45.910156 54.667969 C 45.816406 54.410156 45.816406 54.085938 45.925781 53.707031 C 46.03125 53.300781 46.210938 53 46.425781 52.8125 C 46.644531 52.636719 46.890625 52.582031 47.148438 52.636719 C 47.363281 52.703125 47.527344 52.839844 47.609375 53.042969 C 47.664062 53.164062 47.691406 53.339844 47.675781 53.542969 L 47.28125 53.558594 C 47.296875 53.433594 47.269531 53.3125 47.230469 53.230469 C 47.175781 53.136719 47.105469 53.082031 47.011719 53.054688 C 46.875 53.015625 46.738281 53.054688 46.617188 53.164062 C 46.496094 53.273438 46.398438 53.476562 46.316406 53.761719 C 46.238281 54.074219 46.210938 54.304688 46.265625 54.453125 C 46.304688 54.601562 46.398438 54.695312 46.523438 54.738281 C 46.632812 54.75 46.726562 54.738281 46.820312 54.667969 C 46.917969 54.601562 46.996094 54.492188 47.078125 54.316406 Z M 49.105469 55.957031 L 48.710938 55.824219 L 48.75 55.226562 L 48.03125 54.996094 L 47.691406 55.484375 L 47.308594 55.359375 L 48.859375 53.203125 L 49.238281 53.328125 Z M 48.777344 54.792969 L 48.847656 53.828125 L 48.289062 54.628906 Z M 49.523438 55.28125 L 49.878906 55.375 C 49.835938 55.539062 49.824219 55.671875 49.851562 55.769531 C 49.878906 55.863281 49.945312 55.945312 50.054688 55.984375 C 50.164062 56.039062 50.273438 56.039062 50.355469 56 C 50.4375 55.957031 50.503906 55.902344 50.542969 55.808594 C 50.570312 55.753906 50.585938 55.699219 50.570312 55.660156 C 50.570312 55.605469 50.542969 55.566406 50.488281 55.511719 C 50.460938 55.46875 50.382812 55.386719 50.257812 55.28125 C 50.097656 55.144531 50 55.007812 49.972656 54.886719 C 49.917969 54.710938 49.945312 54.535156 50.027344 54.359375 C 50.082031 54.234375 50.164062 54.140625 50.257812 54.058594 C 50.355469 53.976562 50.460938 53.9375 50.585938 53.921875 C 50.695312 53.910156 50.828125 53.921875 50.953125 53.976562 C 51.183594 54.074219 51.304688 54.207031 51.359375 54.386719 C 51.414062 54.5625 51.386719 54.75 51.304688 54.96875 L 50.9375 54.832031 C 50.980469 54.710938 50.992188 54.617188 50.964844 54.535156 C 50.9375 54.464844 50.871094 54.410156 50.773438 54.371094 C 50.679688 54.332031 50.585938 54.316406 50.503906 54.34375 C 50.449219 54.371094 50.410156 54.410156 50.382812 54.464844 C 50.355469 54.519531 50.339844 54.574219 50.367188 54.628906 C 50.382812 54.695312 50.460938 54.792969 50.613281 54.925781 C 50.761719 55.050781 50.855469 55.15625 50.910156 55.253906 C 50.964844 55.335938 50.992188 55.441406 50.992188 55.566406 C 50.992188 55.6875 50.964844 55.808594 50.898438 55.957031 C 50.828125 56.09375 50.75 56.203125 50.640625 56.296875 C 50.53125 56.390625 50.410156 56.433594 50.285156 56.445312 C 50.164062 56.460938 50.015625 56.445312 49.863281 56.378906 C 49.648438 56.285156 49.511719 56.148438 49.457031 55.957031 C 49.402344 55.769531 49.429688 55.550781 49.523438 55.28125 Z M 50.855469 56.773438 L 52.050781 54.535156 L 52.390625 54.695312 L 51.195312 56.949219 Z M 51.535156 57.136719 L 52.800781 54.953125 L 53.125 55.128906 L 52.078125 56.949219 L 52.910156 57.394531 L 52.703125 57.761719 Z M 54.335938 58.847656 L 53.996094 58.617188 L 54.1875 58.058594 L 53.5625 57.652344 L 53.097656 58.046875 L 52.757812 57.828125 L 54.851562 56.132812 L 55.179688 56.351562 Z M 54.335938 57.640625 L 54.660156 56.71875 L 53.902344 57.367188 Z M 54.335938 57.640625 " fill-opacity="1" fill-rule="nonzero"/><path fill="#fff212" d="M 36.644531 8.011719 L 37.664062 5.136719 L 37.675781 9.382812 Z M 36.644531 8.011719 " fill-opacity="1" fill-rule="evenodd"/><path fill="#fff212" d="M 33.367188 8.214844 L 36.25 8.203125 L 37.199219 9.476562 Z M 33.367188 8.214844 " fill-opacity="1" fill-rule="evenodd"/><path fill="#fff212" d="M 35.691406 10.414062 L 33.261719 8.582031 L 37.253906 9.898438 Z M 35.691406 10.414062 " fill-opacity="1" fill-rule="evenodd"/><path fill="#fff212" d="M 37.664062 12.109375 L 35.296875 13.734375 L 37.675781 10.5625 Z M 34.890625 13.613281 L 35.761719 10.875 L 37.351562 10.316406 Z M 34.890625 13.613281 " fill-opacity="1" fill-rule="evenodd"/><path fill="#fff212" d="M 39.984375 10.792969 L 40.84375 13.585938 L 38.34375 10.25 Z M 40.339844 13.65625 L 38.058594 12.054688 L 38.058594 10.617188 Z M 40.339844 13.65625 " fill-opacity="1" fill-rule="evenodd"/><path fill="#fff212" d="M 42.445312 8.59375 L 39.984375 10.398438 L 38.476562 9.898438 Z M 42.445312 8.59375 " fill-opacity="1" fill-rule="evenodd"/><path fill="#fff212" d="M 39.46875 8.148438 L 42.363281 8.214844 L 38.464844 9.476562 Z M 39.46875 8.148438 " fill-opacity="1" fill-rule="evenodd"/><path fill="#fff212" d="M 38.058594 5.152344 L 39.046875 8.054688 L 38.058594 9.367188 Z M 38.058594 5.152344 " fill-opacity="1" fill-rule="evenodd"/></svg>